<?xml version="1.0" standalone="no"?><!DOCTYPE svg PUBLIC "-//W3C//DTD SVG 1.1//EN" "http://www.w3.org/Graphics/SVG/1.1/DTD/svg11.dtd"><svg height="1024" node-id="1" sillyvg="true" template-height="1024" template-width="1024" version="1.1" viewBox="0 0 1024 1024" width="1024" xmlns="http://www.w3.org/2000/svg" xmlns:xlink="http://www.w3.org/1999/xlink"><defs node-id="174"><clipPath id="clip-团队" node-id="13"><path d="M 0.00 0.00 L 1024.00 0.00 L 1024.00 1024.00 L 0.00 1024.00 Z" fill="#000000" fill-rule="nonzero" node-id="177" stroke="none" target-height="1024" target-width="1024" target-x="0" target-y="0"></path></clipPath><clipPath id="clip-path" node-id="3"><path d="M 15248.32 6419.22 L 15249.24 6421.09 L 15250.39 6422.97 L 15252.40 6425.62 L 15254.89 6428.26 L 15258.40 6431.17 L 15261.00 6432.91 L 15264.13 6434.56 L 15267.85 6436.12 L 15271.67 6437.32 L 15276.15 6438.23 L 15281.35 6438.83 L 15286.58 6438.84 L 15291.30 6438.29 L 15295.59 6437.22 L 15299.75 6435.68 L 15303.47 6433.89 L 15306.77 6431.86 L 15311.32 6428.42 L 15314.85 6425.11 L 15317.84 6421.77 L 15319.74 6419.33 L 15321.38 6416.88 L 15324.62 6417.65 L 15332.79 6419.58 L 15343.53 6422.13 L 15354.49 6424.74 L 15363.32 6426.85 L 15367.67 6427.90 L 15370.57 6429.07 L 15372.44 6430.08 L 15374.55 6431.45 L 15376.60 6433.04 L 15378.52 6434.90 L 15380.15 6436.99 L 15381.35 6439.28 L 15383.71 6445.14 L 15388.62 6457.23 L 15395.33 6473.72 L 15403.12 6492.82 L 15411.25 6512.70 L 15418.99 6531.55 L 15425.59 6547.54 L 15430.33 6558.88 L 15432.46 6563.73 L 15432.92 6564.73 L 15433.61 6566.79 L 15434.20 6569.15 L 15434.69 6572.13 L 15434.93 6575.25 L 15434.80 6578.54 L 15434.19 6581.77 L 15433.00 6584.80 L 15431.85 6586.62 L 15430.34 6588.25 L 15428.40 6589.70 L 15426.24 6590.77 L 15423.51 6591.56 L 15420.08 6592.02 L 15409.04 6592.51 L 15392.97 6593.03 L 15373.87 6593.53 L 15353.75 6594.01 L 15334.61 6594.43 L 15318.46 6594.76 L 15307.30 6594.97 L 15303.14 6595.05 L 15210.94 6590.00 L 15207.80 6590.08 L 15199.96 6590.26 L 15189.79 6590.48 L 15179.67 6590.68 L 15171.99 6590.79 L 15169.07 6590.77 L 15165.95 6590.55 L 15162.88 6589.97 L 15159.94 6588.84 L 15158.17 6587.75 L 15156.55 6586.25 L 15155.06 6584.30 L 15153.94 6582.10 L 15153.04 6579.24 L 15152.41 6575.54 L 15152.21 6571.80 L 15152.40 6567.09 L 15153.10 6561.20 L 15154.20 6555.39 L 15155.97 6547.94 L 15158.10 6540.08 L 15160.72 6531.20 L 15166.65 6512.60 L 15173.05 6493.76 L 15179.25 6476.29 L 15184.53 6461.81 L 15188.21 6451.93 L 15189.59 6448.28 L 15190.35 6446.21 L 15191.36 6444.15 L 15193.23 6441.27 L 15194.73 6439.40 L 15196.69 6437.43 L 15199.19 6435.35 L 15201.88 6433.57 L 15205.17 6431.90 L 15209.17 6430.36 L 15219.55 6427.21 L 15230.04 6424.19 L 15239.27 6421.64 L 15245.83 6419.88 L 15248.32 6419.22 Z" fill="#000000" fill-rule="nonzero" id="路径_624" node-id="4" stroke="none" target-height="178.17383" target-width="282.71777" target-x="15152.208" target-y="6416.878"></path></clipPath><clipPath id="clip-path-2" node-id="5"><path d="M 14030.69 5450.09 L 14033.10 5451.15 L 14035.65 5452.14 L 14039.31 5453.35 L 14043.28 5454.40 L 14047.80 5455.22 L 14052.43 5455.56 L 14057.05 5455.27 L 14062.79 5454.17 L 14068.42 5452.72 L 14073.94 5450.91 L 14079.36 5448.73 L 14083.19 5509.12 L 13974.13 5509.12 L 13973.38 5507.42 L 13972.80 5505.66 L 13972.33 5503.31 L 13972.25 5500.85 L 13972.78 5498.31 L 13973.87 5495.91 L 13975.57 5493.43 L 13977.99 5490.84 L 13980.74 5488.64 L 13984.29 5486.53 L 13988.78 5484.56 L 13996.32 5482.18 L 14004.35 5479.86 L 14008.26 5478.59 L 14011.75 5477.24 L 14014.95 5475.66 L 14017.39 5473.97 L 14019.10 5472.20 L 14021.03 5469.59 L 14022.83 5466.67 L 14024.61 5463.42 L 14027.70 5457.07 L 14029.87 5452.09 L 14030.69 5450.09 Z" fill="#000000" fill-rule="nonzero" id="路径_580" node-id="6" stroke="none" target-height="60.388184" target-width="110.93848" target-x="13972.249" target-y="5448.734"></path></clipPath><clipPath id="clip-path-3" node-id="7"><path d="M 906.27 842.96 L 908.80 843.68 L 911.47 844.31 L 915.26 845.00 L 919.34 845.49 L 923.93 845.67 L 928.56 845.36 L 933.10 844.43 L 938.63 842.54 L 944.00 840.32 L 949.21 837.76 L 954.28 834.85 L 966.48 894.12 L 858.48 909.30 L 857.50 907.72 L 856.68 906.06 L 855.89 903.80 L 855.47 901.37 L 855.64 898.77 L 856.39 896.25 L 857.73 893.56 L 859.76 890.66 L 862.18 888.09 L 865.40 885.52 L 869.57 882.94 L 876.71 879.53 L 884.34 876.11 L 888.03 874.31 L 891.30 872.49 L 894.25 870.48 L 896.43 868.47 L 897.88 866.48 L 899.42 863.62 L 900.79 860.48 L 902.10 857.02 L 904.28 850.29 L 905.74 845.07 L 906.27 842.96 Z" fill="#000000" fill-rule="nonzero" id="路径_580-2" node-id="8" stroke="none" target-height="74.44537" target-width="111.01007" target-x="855.46674" target-y="834.85205"></path></clipPath><clipPath id="clip-path-4" node-id="9"><path d="M 14006.32 4893.15 L 13959.22 5065.30 L 13962.02 5067.59 L 13965.11 5069.94 L 13969.91 5073.33 L 13975.32 5076.84 L 13982.15 5080.83 L 13989.51 5084.64 L 13997.99 5088.40 L 14003.86 5090.64 L 14010.08 5092.63 L 14016.68 5094.37 L 14025.05 5096.12 L 14032.66 5097.45 L 14039.56 5098.38 L 14049.63 5099.33 L 14057.60 5099.72 L 14064.81 5099.78 L 14069.44 5099.63 L 14073.69 5099.33 L 14084.28 5030.60 L 14087.89 5080.40 L 14090.89 5080.11 L 14098.85 5079.32 L 14110.18 5078.11 L 14123.30 5076.60 L 14136.61 5074.87 L 14148.55 5073.02 L 14153.72 5072.04 L 14157.51 5071.16 L 14168.73 5068.30 L 14181.41 5065.19 L 14193.27 5062.33 L 14202.06 5060.25 L 14205.49 5059.44 L 14150.96 4885.49 Z" fill="#000000" fill-rule="nonzero" id="路径_574" node-id="10" stroke="none" target-height="214.28613" target-width="246.26563" target-x="13959.224" target-y="4885.4893"></path></clipPath><clipPath id="clip-path-5" node-id="11"><path d="M 14030.69 4567.50 L 14034.06 4570.29 L 14036.57 4572.20 L 14039.97 4574.37 L 14043.77 4576.28 L 14048.40 4577.91 L 14051.65 4578.66 L 14055.26 4579.07 L 14059.29 4579.12 L 14063.31 4578.72 L 14066.76 4578.07 L 14069.71 4577.20 L 14073.88 4575.50 L 14077.05 4573.76 L 14081.74 4570.53 L 14083.42 4569.45 L 14084.25 4569.24 L 14088.18 4570.46 L 14091.39 4571.73 L 14095.58 4573.67 L 14099.88 4576.02 L 14104.50 4579.01 L 14107.47 4581.26 L 14110.31 4583.77 L 14113.02 4586.57 L 14116.32 4590.60 L 14119.70 4595.24 L 14123.18 4600.55 L 14128.08 4608.78 L 14132.93 4617.62 L 14137.57 4626.62 L 14141.92 4635.38 L 14144.08 4640.08 L 14146.70 4646.36 L 14152.14 4660.60 L 14157.63 4675.97 L 14162.56 4690.33 L 14166.31 4701.57 L 14168.29 4707.55 L 14168.49 4709.04 L 14168.54 4713.16 L 14168.11 4724.67 L 14167.21 4740.04 L 14166.02 4757.22 L 14164.74 4774.14 L 14163.59 4788.77 L 14162.75 4799.05 L 14162.42 4802.93 L 14158.98 4803.01 L 14150.16 4803.05 L 14138.30 4802.78 L 14131.91 4802.45 L 14125.67 4801.93 L 14119.63 4801.18 L 14114.59 4800.22 L 14111.37 4799.32 L 14109.02 4798.36 L 14107.36 4797.36 L 14108.86 4789.30 L 14110.17 4781.94 L 14111.10 4776.59 L 14111.46 4774.52 L 14107.18 4775.55 L 14095.79 4777.84 L 14088.33 4779.06 L 14079.44 4780.21 L 14070.19 4781.04 L 14060.32 4781.45 L 14053.67 4781.42 L 14047.08 4781.06 L 14040.57 4780.38 L 14028.59 4778.92 L 14017.50 4777.77 L 14006.74 4776.63 L 13997.10 4775.36 L 13990.83 4774.26 L 13985.17 4772.92 L 13980.06 4771.35 L 13976.31 4769.87 L 13972.92 4768.15 L 13969.83 4766.18 L 13967.05 4763.98 L 13966.93 4762.15 L 13967.00 4758.60 L 13967.58 4749.48 L 13968.57 4738.27 L 13969.74 4726.65 L 13970.86 4716.27 L 13971.69 4708.83 L 13972.02 4705.98 L 13968.81 4704.81 L 13960.32 4701.37 L 13954.82 4698.93 L 13948.25 4695.77 L 13941.51 4692.26 L 13934.31 4688.11 L 13927.19 4683.56 L 13920.20 4678.49 L 13915.72 4674.84 L 13911.53 4671.02 L 13907.62 4667.01 L 13892.01 4649.30 L 13882.64 4637.97 L 13876.80 4630.35 L 13874.82 4627.41 L 13874.50 4626.65 L 13874.90 4626.19 L 13877.29 4624.33 L 13884.49 4619.06 L 13894.30 4611.65 L 13899.60 4607.42 L 13904.93 4602.91 L 13910.06 4598.23 L 13914.60 4593.64 L 13917.42 4590.44 L 13919.71 4587.45 L 13921.52 4584.66 L 13924.59 4587.03 L 13931.14 4592.05 L 13939.72 4598.62 L 13948.89 4605.64 L 13957.23 4612.01 L 13963.29 4616.64 L 13965.63 4618.43 L 13967.45 4615.82 L 13972.32 4609.24 L 13979.36 4600.51 L 13983.41 4595.92 L 13987.67 4591.48 L 13992.10 4587.36 L 13996.35 4583.99 L 14001.70 4580.49 L 14007.20 4577.29 L 14012.86 4574.38 L 14018.68 4571.77 L 14024.62 4569.48 L 14030.69 4567.50 Z" fill="#000000" fill-rule="nonzero" id="路径_570" node-id="12" stroke="none" target-height="235.54492" target-width="294.0459" target-x="13874.496" target-y="4567.504"></path></clipPath></defs><g clip-path="url(#clip-团队)" id="团队" node-id="15"><path d="M 0.00 0.00 L 1024.00 0.00 L 1024.00 1024.00 L 0.00 1024.00 Z" fill="#dae3ff" fill-rule="nonzero" hidden="true" node-id="197" stroke="none" target-height="1024" target-width="1024" target-x="0" target-y="0" visibility="hidden"></path><path d="M 296.74 269.04 L 297.14 269.43 L 297.14 227.52 L 297.40 224.69 L 298.11 222.10 L 299.25 219.70 L 300.79 217.53 L 302.64 215.68 L 304.81 214.14 L 307.21 212.99 L 309.81 212.29 L 312.64 212.02 L 428.02 212.02 L 430.85 212.29 L 433.45 212.99 L 435.85 214.14 L 438.02 215.68 L 439.87 217.53 L 441.41 219.70 L 442.55 222.10 L 443.26 224.69 L 443.52 227.52 L 443.52 279.82 L 443.26 282.65 L 442.55 285.25 L 441.41 287.65 L 439.87 289.82 L 438.02 291.67 L 435.85 293.21 L 433.45 294.35 L 430.85 295.06 L 428.02 295.32 L 312.91 295.32 L 296.74 311.49 Z" fill="#f3c044" fill-rule="nonzero" group-id="1,6,25" id="联合_24" node-id="19" stroke="none" target-height="99.47101" target-width="146.78699" target-x="296.73633" target-y="212.02393"></path><path d="M 375.99 271.47 L 375.99 263.38 L 422.90 263.38 L 422.90 271.47 Z M 375.99 253.67 L 375.99 245.59 L 405.92 245.59 L 405.92 253.67 Z M 375.99 235.88 L 375.99 227.79 L 428.56 227.79 L 428.56 235.88 Z" fill="#ffffff" fill-rule="nonzero" group-id="1,6,26" id="联合_25" node-id="20" stroke="none" target-height="43.671997" target-width="52.567993" target-x="375.99316" target-y="227.79492"></path><path d="M 338.79 247.20 L 338.79 225.37 L 341.81 225.59 L 344.64 226.16 L 347.30 227.08 L 349.81 228.35 L 352.88 230.52 L 355.48 233.12 L 357.65 236.18 L 358.92 238.70 L 359.83 241.35 L 360.41 244.18 L 360.63 247.20 Z" fill="#fb1100" fill-rule="nonzero" group-id="1,6,27" id="交叉_2" node-id="21" stroke="none" target-height="21.835999" target-width="21.835999" target-x="338.79102" target-y="225.36792"></path><path d="M 336.36 271.47 L 332.92 271.19 L 329.70 270.43 L 326.66 269.19 L 323.84 267.51 L 321.33 265.46 L 319.13 263.02 L 317.31 260.29 L 315.93 257.28 L 314.97 253.96 L 314.56 250.53 L 314.66 247.23 L 315.27 244.00 L 316.36 240.90 L 317.87 238.04 L 319.81 235.39 L 322.13 233.06 L 324.80 231.11 L 327.86 229.51 L 330.62 228.56 L 333.45 227.99 L 336.36 227.79 L 336.36 249.63 L 358.20 249.63 L 358.01 252.52 L 357.46 255.30 L 356.54 257.99 L 355.29 260.54 L 353.72 262.90 L 351.81 265.08 L 349.63 266.98 L 347.27 268.55 L 344.72 269.81 L 342.03 270.72 L 339.25 271.28 L 336.36 271.47 Z" fill="#67b5d1" fill-rule="nonzero" group-id="1,6,28" id="减去_11" node-id="22" stroke="none" target-height="43.671997" target-width="43.641327" target-x="314.559" target-y="227.79492"></path><path d="M 496.28 148.84 L 750.41 148.84 L 752.82 149.17 L 754.95 150.07 L 756.78 151.48 L 758.18 153.30 L 759.08 155.43 L 759.41 157.84 L 759.41 352.94 L 759.08 355.35 L 758.18 357.48 L 756.78 359.31 L 754.95 360.71 L 752.82 361.61 L 750.41 361.94 L 496.28 361.94 L 493.87 361.61 L 491.73 360.71 L 489.91 359.31 L 488.51 357.48 L 487.60 355.35 L 487.28 352.94 L 487.28 157.84 L 487.60 155.43 L 488.51 153.30 L 489.91 151.48 L 491.73 150.07 L 493.87 149.17 L 496.28 148.84 Z" fill="#6875f3" fill-rule="nonzero" group-id="1,7,29" id="矩形_152" node-id="24" stroke="none" target-height="213.10199" target-width="272.135" target-x="487.27637" target-y="148.83911"></path><path d="M 517.84 244.94 L 540.82 244.94 L 540.82 338.96 L 517.84 338.96 Z" fill="#ffffff" fill-rule="nonzero" group-id="1,7,30" id="矩形_153" node-id="26" stroke="none" target-height="94.015015" target-width="22.981995" target-x="517.8379" target-y="244.94409"></path><path d="M 517.84 274.19 L 540.82 274.19 L 540.82 338.96 L 517.84 338.96 Z" fill="#f6a040" fill-rule="nonzero" group-id="1,7,30,86" id="矩形_154" node-id="27" stroke="none" target-height="64.76599" target-width="22.981995" target-x="517.8379" target-y="274.19308"></path><path d="M 565.89 215.69 L 588.87 215.69 L 588.87 338.96 L 565.89 338.96 Z" fill="#ffffff" fill-rule="nonzero" group-id="1,7,31" id="矩形_153-2" node-id="29" stroke="none" target-height="123.265015" target-width="22.981995" target-x="565.8916" target-y="215.69409"></path><path d="M 565.89 259.57 L 588.87 259.57 L 588.87 338.96 L 565.89 338.96 Z" fill="#f6a040" fill-rule="nonzero" group-id="1,7,31,87" id="矩形_154-2" node-id="30" stroke="none" target-height="79.39099" target-width="22.981995" target-x="565.8916" target-y="259.56808"></path><path d="M 703.78 259.57 L 726.76 259.57 L 726.76 338.96 L 703.78 338.96 Z" fill="#ffffff" fill-rule="nonzero" group-id="1,7,32" id="矩形_153-3" node-id="32" stroke="none" target-height="79.39099" target-width="22.981995" target-x="703.7783" target-y="259.5681"></path><path d="M 703.78 299.26 L 726.76 299.26 L 726.76 338.96 L 703.78 338.96 Z" fill="#f6a040" fill-rule="nonzero" group-id="1,7,32,88" id="矩形_154-3" node-id="33" stroke="none" target-height="39.695007" target-width="22.981995" target-x="703.7783" target-y="299.26312"></path><path d="M 657.82 237.41 L 680.80 237.41 L 680.80 338.96 L 657.82 338.96 Z" fill="#ffffff" fill-rule="nonzero" group-id="1,7,33" id="矩形_153-4" node-id="35" stroke="none" target-height="101.548004" target-width="22.981995" target-x="657.8154" target-y="237.41211"></path><path d="M 657.82 296.15 L 680.80 296.15 L 680.80 338.96 L 657.82 338.96 Z" fill="#f6a040" fill-rule="nonzero" group-id="1,7,33,89" id="矩形_154-4" node-id="36" stroke="none" target-height="42.815002" target-width="22.981995" target-x="657.8154" target-y="296.1451"></path><path d="M 611.85 171.82 L 634.84 171.82 L 634.84 338.96 L 611.85 338.96 Z" fill="#ffffff" fill-rule="nonzero" group-id="1,7,34" id="矩形_153-5" node-id="38" stroke="none" target-height="167.138" target-width="22.981995" target-x="611.8535" target-y="171.82007"></path><path d="M 611.85 247.03 L 634.84 247.03 L 634.84 338.96 L 611.85 338.96 Z" fill="#f6a040" fill-rule="nonzero" group-id="1,7,34,90" id="矩形_154-5" node-id="39" stroke="none" target-height="91.925995" target-width="22.981995" target-x="611.8535" target-y="247.03207"></path><path d="M 171.51 703.69 L 192.74 703.69 L 192.74 903.03 L 171.51 903.03 Z" fill="#7971a2" fill-rule="nonzero" group-id="2,8,35" id="矩形_138" node-id="42" stroke="none" target-height="199.33502" target-width="21.233002" target-x="171.5073" target-y="703.69226"></path><path d="M 340.45 703.69 L 360.76 703.69 L 360.76 903.03 L 340.45 903.03 Z" fill="#7971a2" fill-rule="nonzero" group-id="2,8,36" id="矩形_139" node-id="43" stroke="none" target-height="199.33502" target-width="20.309998" target-x="340.4503" target-y="703.69226"></path><path d="M 151.20 689.84 L 378.30 689.84 L 378.30 717.54 L 151.20 717.54 Z" fill="#223ea1" fill-rule="nonzero" group-id="2,8" id="矩形_137" node-id="44" stroke="none" target-height="27.695984" target-width="227.104" target-x="151.19629" target-y="689.84424"></path><path d="M 236.55 313.44 L 236.08 312.73 L 235.38 310.97 L 234.82 308.90 L 234.38 306.25 L 234.23 303.49 L 234.46 300.62 L 234.89 298.76 L 235.59 297.03 L 236.57 295.42 L 237.82 294.04 L 239.47 292.89 L 241.61 291.97 L 244.49 291.27 L 247.06 290.94 L 249.39 290.94 L 252.76 291.45 L 255.56 292.42 L 258.04 293.79 L 259.94 295.31 L 261.44 297.03 L 262.32 298.54 L 263.09 300.67 L 263.66 303.14 L 263.92 305.71 L 263.83 308.36 L 263.32 310.96 L 262.32 313.44 L 265.35 313.70 L 267.82 314.20 L 270.99 315.16 L 274.19 316.54 L 277.49 318.55 L 279.51 320.19 L 281.37 322.18 L 283.06 324.57 L 284.99 328.30 L 286.11 331.39 L 286.77 334.41 L 287.02 337.07 L 286.98 342.12 L 286.98 344.57 L 287.19 347.09 L 287.69 350.34 L 288.20 352.70 L 288.98 354.68 L 289.99 355.86 L 290.86 356.31 L 292.02 356.52 L 293.60 356.42 L 295.95 356.14 L 297.96 356.18 L 299.87 356.61 L 301.73 357.57 L 303.46 359.05 L 305.45 361.47 L 306.71 363.58 L 307.64 365.76 L 309.14 370.29 L 309.98 372.54 L 311.08 374.78 L 312.52 376.87 L 314.58 378.96 L 317.23 380.76 L 320.92 382.61 L 329.42 386.03 L 333.95 387.80 L 338.33 389.70 L 342.46 391.83 L 345.87 394.11 L 348.98 396.73 L 351.97 399.66 L 354.61 402.87 L 356.67 406.28 L 357.66 408.71 L 358.22 411.21 L 358.35 413.81 L 358.00 416.39 L 357.04 419.13 L 355.39 422.09 L 354.35 422.99 L 352.17 423.95 L 348.21 424.94 L 341.82 425.90 L 332.76 426.72 L 322.91 427.25 L 311.16 427.60 L 298.91 427.76 L 285.55 427.77 L 258.04 427.39 L 230.76 426.64 L 205.85 425.71 L 185.42 424.75 L 171.60 423.96 L 167.07 423.59 L 166.52 423.49 L 165.17 421.68 L 163.93 420.05 L 162.52 417.76 L 161.39 415.19 L 160.70 412.19 L 160.62 410.12 L 160.98 407.89 L 161.83 405.45 L 163.51 402.42 L 165.29 400.00 L 167.15 398.12 L 170.26 395.77 L 173.23 394.18 L 178.55 392.10 L 180.82 391.22 L 183.39 390.00 L 185.03 389.00 L 186.69 387.66 L 188.39 385.91 L 189.82 383.96 L 191.21 381.37 L 192.52 378.04 L 194.26 373.02 L 196.01 368.82 L 197.36 366.21 L 198.82 363.97 L 200.38 362.07 L 202.19 360.42 L 204.24 359.08 L 206.58 358.05 L 209.96 356.57 L 212.02 355.21 L 213.58 353.70 L 214.33 352.63 L 214.81 351.50 L 214.74 349.79 L 214.72 345.40 L 215.00 339.51 L 215.35 336.36 L 215.87 333.29 L 216.77 330.23 L 218.32 326.86 L 220.35 323.61 L 222.89 320.50 L 225.83 317.77 L 229.12 315.58 L 231.49 314.48 L 233.96 313.77 L 236.55 313.44 Z" fill="#583b3b" fill-rule="nonzero" group-id="2,9,37" id="路径_585" node-id="46" stroke="none" target-height="136.82813" target-width="197.72656" target-x="160.625" target-y="290.93848"></path><path d="M 239.37 378.37 L 239.37 397.61 L 237.52 398.10 L 233.08 399.30 L 227.66 400.80 L 222.93 402.18 L 220.53 403.05 L 220.43 403.51 L 220.87 405.04 L 222.69 409.13 L 225.10 413.85 L 227.20 417.75 L 228.10 419.37 L 248.89 426.17 L 271.04 426.17 L 291.64 410.63 L 293.97 399.94 L 267.16 397.61 L 267.16 376.43 Z" fill="#f1bbb4" fill-rule="nonzero" group-id="2,9,38" id="路径_587" node-id="47" stroke="none" target-height="49.74121" target-width="73.54297" target-x="220.43164" target-y="376.4292"></path><path d="M 254.18 324.70 L 252.17 327.04 L 246.84 332.61 L 243.32 335.87 L 239.23 339.26 L 234.88 342.35 L 230.42 344.87 L 227.31 346.17 L 224.33 346.96 L 221.45 347.27 L 218.60 347.52 L 216.43 348.06 L 214.82 348.82 L 213.39 349.90 L 212.34 351.10 L 211.61 352.43 L 210.97 354.63 L 210.78 356.84 L 210.94 359.01 L 211.28 360.78 L 212.03 362.97 L 213.55 364.94 L 214.84 366.21 L 216.53 367.47 L 218.46 368.38 L 220.67 368.79 L 222.17 368.69 L 223.80 368.17 L 225.63 367.15 L 225.84 367.70 L 226.90 369.30 L 228.31 371.08 L 230.44 373.38 L 232.90 375.64 L 235.90 377.96 L 239.20 379.98 L 242.89 381.63 L 245.48 382.42 L 248.19 382.87 L 251.04 382.99 L 256.22 382.73 L 260.40 382.23 L 263.03 381.65 L 265.39 380.82 L 267.52 379.76 L 269.47 378.41 L 271.37 376.63 L 273.24 374.36 L 274.86 371.89 L 276.57 368.73 L 278.39 364.76 L 280.20 364.97 L 281.96 365.04 L 284.24 364.95 L 286.54 364.56 L 288.75 363.75 L 290.06 362.94 L 291.14 361.85 L 291.99 360.43 L 292.83 357.92 L 293.27 355.17 L 293.22 352.43 L 292.59 350.00 L 291.81 348.59 L 290.70 347.50 L 289.22 346.68 L 287.56 346.29 L 285.36 346.34 L 282.43 346.97 L 277.12 344.36 L 272.65 341.84 L 268.93 339.40 L 263.83 335.49 L 260.23 332.20 L 257.27 328.98 L 255.57 326.82 L 254.18 324.70 Z" fill="#f1c0ba" fill-rule="nonzero" group-id="2,9,39" id="路径_586" node-id="48" stroke="none" target-height="58.29004" target-width="82.48828" target-x="210.78418" target-y="324.7041"></path><path d="M 221.87 401.30 L 222.79 403.17 L 223.94 405.05 L 225.95 407.70 L 228.43 410.34 L 231.94 413.26 L 234.55 414.99 L 237.68 416.65 L 241.40 418.21 L 245.22 419.40 L 249.69 420.32 L 254.90 420.92 L 260.13 420.92 L 264.85 420.37 L 269.14 419.31 L 273.30 417.77 L 277.01 415.98 L 280.33 413.95 L 284.87 410.50 L 288.40 407.19 L 291.39 403.85 L 293.29 401.41 L 294.93 398.96 L 298.17 399.73 L 306.34 401.67 L 317.08 404.22 L 328.04 406.82 L 336.87 408.93 L 341.22 409.99 L 344.12 411.15 L 345.99 412.17 L 348.10 413.53 L 350.15 415.12 L 352.07 416.98 L 353.70 419.08 L 354.90 421.37 L 357.26 427.23 L 362.17 439.31 L 368.88 455.81 L 376.67 474.91 L 384.80 494.78 L 392.54 513.63 L 399.14 529.63 L 403.88 540.96 L 406.01 545.81 L 406.47 546.82 L 407.16 548.87 L 407.75 551.24 L 408.24 554.21 L 408.48 557.33 L 408.35 560.62 L 407.74 563.85 L 406.55 566.88 L 405.40 568.71 L 403.89 570.33 L 401.95 571.78 L 399.79 572.85 L 397.06 573.65 L 393.63 574.11 L 382.59 574.60 L 366.52 575.11 L 347.42 575.62 L 327.30 576.09 L 308.16 576.51 L 292.01 576.84 L 280.85 577.06 L 276.68 577.14 L 184.49 572.08 L 181.35 572.16 L 173.51 572.34 L 163.34 572.56 L 153.22 572.76 L 145.54 572.87 L 142.62 572.85 L 139.50 572.63 L 136.43 572.05 L 133.49 570.93 L 131.72 569.83 L 130.09 568.34 L 128.61 566.38 L 127.49 564.19 L 126.59 561.32 L 125.96 557.62 L 125.76 553.89 L 125.95 549.17 L 126.65 543.29 L 127.75 537.48 L 129.52 530.02 L 131.65 522.17 L 134.27 513.28 L 140.20 494.68 L 146.60 475.84 L 152.80 458.37 L 158.08 443.89 L 161.76 434.02 L 163.14 430.37 L 163.90 428.30 L 164.92 426.23 L 166.78 423.35 L 168.28 421.49 L 170.25 419.52 L 172.74 417.44 L 175.42 415.65 L 178.72 413.98 L 182.72 412.45 L 193.10 409.29 L 203.59 406.28 L 212.82 403.73 L 219.38 401.96 L 221.87 401.30 Z" fill="#f1b36d" fill-rule="nonzero" group-id="2,10,40" id="路径_588" node-id="50" stroke="none" target-height="178.17383" target-width="282.71777" target-x="125.75781" target-y="398.9619"></path><g clip-path="url(#clip-path)" group-id="2,10,41" id="蒙版组_25" node-id="51"><path d="M 166.01 417.08 L 168.07 420.49 L 172.39 428.47 L 174.95 433.67 L 177.78 439.95 L 180.47 446.58 L 183.03 453.87 L 185.22 461.39 L 186.93 469.16" fill="none" group-id="2,10,41,91,111" id="路径_590" node-id="53" stroke="#ffe6c4" stroke-linecap="round" stroke-width="3" target-height="52.08008" target-width="20.916992" target-x="166.0127" target-y="417.083"></path><path d="M 141.28 486.33 L 142.24 484.64 L 144.85 480.54 L 146.62 478.09 L 148.73 475.48 L 151.03 473.03 L 153.47 470.91 L 156.09 469.23 L 158.68 468.27" fill="none" group-id="2,10,41,91,112" id="路径_591" node-id="54" stroke="#ffe6c4" stroke-linecap="round" stroke-width="3" target-height="18.060059" target-width="17.40039" target-x="141.28027" target-y="468.27295"></path><path d="M 161.97 500.13 L 179.37 488.63" fill="none" group-id="2,10,41,91,113" id="路径_592" node-id="55" stroke="#ffe6c4" stroke-linecap="round" stroke-width="3" target-height="11.493164" target-width="17.40039" target-x="161.96777" target-y="488.6328"></path><path d="M 143.25 511.62 L 170.83 507.35" fill="none" group-id="2,10,41,91,114" id="路径_593" node-id="56" stroke="#ffe6c4" stroke-linecap="round" stroke-width="3" target-height="4.269043" target-width="27.583008" target-x="143.25098" target-y="507.34863"></path><path d="M 155.40 539.86 L 170.18 547.74" fill="none" group-id="2,10,41,91,115" id="路径_594" node-id="57" stroke="#ffe6c4" stroke-linecap="round" stroke-width="3" target-height="7.879883" target-width="14.776367" target-x="155.40137" target-y="539.8579"></path><path d="M 141.28 547.74 L 142.59 570.40" fill="none" group-id="2,10,41,91,116" id="路径_595" node-id="58" stroke="#ffe6c4" stroke-linecap="round" stroke-width="3" target-height="22.658203" target-width="1.3134766" target-x="141.28027" target-y="547.7388"></path><path d="M 170.83 558.90 L 151.13 570.07" fill="none" group-id="2,10,41,91,117" id="路径_596" node-id="59" stroke="#ffe6c4" stroke-linecap="round" stroke-width="3" target-height="11.1640625" target-width="19.699219" target-x="151.13379" target-y="558.90283"></path><path d="M 130.77 517.20 L 132.37 517.05 L 133.99 517.03 L 136.17 517.22 L 138.38 517.72 L 140.63 518.69 L 141.99 519.60 L 143.20 520.83 L 144.27 522.41 L 145.00 524.17 L 145.45 526.44 L 145.55 529.35" fill="none" group-id="2,10,41,91,118" id="路径_597" node-id="60" stroke="#ffe6c4" stroke-linecap="round" stroke-width="3" target-height="12.322266" target-width="14.77832" target-x="130.77246" target-y="517.02734"></path><path d="M 170.25 434.45 L 170.18 432.88 L 170.27 431.29 L 170.65 429.13 L 171.38 426.95 L 172.66 424.66 L 173.79 423.30 L 175.29 422.05 L 177.22 420.92 L 179.31 420.12 L 181.98 419.57 L 185.35 419.35" fill="none" group-id="2,10,41,91,119" id="路径_598" node-id="61" stroke="#ffe6c4" stroke-linecap="round" stroke-width="3" target-height="15.10498" target-width="15.171875" target-x="170.17871" target-y="419.3462"></path><path d="M 170.25 484.27 L 170.18 482.70 L 170.27 481.11 L 170.65 478.95 L 171.38 476.76 L 172.66 474.48 L 173.79 473.12 L 175.29 471.87 L 177.22 470.73 L 179.31 469.94 L 181.98 469.39 L 185.35 469.16" fill="none" group-id="2,10,41,91,120" id="路径_600" node-id="62" stroke="#ffe6c4" stroke-linecap="round" stroke-width="3" target-height="15.10498" target-width="15.171875" target-x="170.17871" target-y="469.1631"></path><path d="M 161.05 533.95 L 160.98 532.38 L 161.08 530.79 L 161.45 528.63 L 162.18 526.44 L 163.46 524.16 L 164.60 522.80 L 166.10 521.55 L 168.03 520.41 L 170.12 519.62 L 172.78 519.07 L 176.16 518.84" fill="none" group-id="2,10,41,91,121" id="路径_601" node-id="63" stroke="#ffe6c4" stroke-linecap="round" stroke-width="3" target-height="15.10498" target-width="15.171875" target-x="160.98438" target-y="518.8428"></path><path d="M 161.97 453.50 L 184.62 447.26" fill="none" group-id="2,10,41,91,122" id="路径_599" node-id="64" stroke="#ffe6c4" stroke-linecap="round" stroke-width="3" target-height="6.2382813" target-width="22.657227" target-x="161.96777" target-y="447.2578"></path><path d="M 325.82 430.84 L 326.73 429.67 L 329.18 427.12 L 330.82 425.76 L 332.72 424.56 L 334.77 423.71 L 336.91 423.39 L 338.33 423.54 L 339.79 424.06 L 341.33 425.02 L 342.65 426.28 L 344.05 428.16 L 345.52 430.84" fill="none" group-id="2,10,41,91,123" id="路径_602" node-id="65" stroke="#ffe6c4" stroke-linecap="round" stroke-width="3" target-height="7.4432983" target-width="19.703003" target-x="325.8202" target-y="423.39435"></path><path d="M 340.60 443.12 L 341.86 443.01 L 344.88 443.09 L 346.66 443.38 L 348.47 443.96 L 350.12 444.88 L 351.48 446.24 L 352.14 447.35 L 352.57 448.75 L 352.75 450.54 L 352.51 452.77 L 351.96 454.46 L 351.16 455.75 L 349.50 457.30 L 347.66 458.26 L 345.71 458.82 L 344.16 459.04 L 342.57 459.08" fill="none" group-id="2,10,41,91,124" id="路径_603" node-id="66" stroke="#ffe6c4" stroke-linecap="round" stroke-width="3" target-height="16.06543" target-width="12.149414" target-x="340.59766" target-y="443.0122"></path><path d="M 342.36 502.34 L 363.14 495.77" fill="none" group-id="2,10,41,91,125" id="路径_604" node-id="67" stroke="#ffe6c4" stroke-linecap="round" stroke-width="3" target-height="6.5770874" target-width="20.772583" target-x="342.36267" target-y="495.76782"></path><path d="M 369.62 489.29 L 391.27 486.80" fill="none" group-id="2,10,41,91,126" id="路径_606" node-id="68" stroke="#ffe6c4" stroke-linecap="round" stroke-width="2.9999952" target-height="2.4924011" target-width="21.645905" target-x="369.62167" target-y="486.8015"></path><path d="M 331.54 515.35 L 356.69 515.35" fill="none" group-id="2,10,41,91,127" id="路径_607" node-id="69" stroke="#ffe6c4" stroke-linecap="round" stroke-width="2.9999952" target-height="0.00024414063" target-width="25.14795" target-x="331.53967" target-y="515.3469"></path><path d="M 357.67 470.90 L 358.82 473.71 L 360.71 478.61 L 362.47 483.27 L 363.25 485.35" fill="none" group-id="2,10,41,91,128" id="路径_605" node-id="70" stroke="#ffe6c4" stroke-linecap="round" stroke-width="3" target-height="14.448242" target-width="5.5820313" target-x="357.67285" target-y="470.89795"></path><path d="M 374.99 524.21 L 373.73 524.00 L 372.49 523.68 L 370.86 523.08 L 369.27 522.21 L 367.73 520.95 L 366.51 519.34 L 365.68 517.16 L 365.47 515.57 L 365.57 513.63 L 366.07 511.23 L 367.14 508.36 L 368.31 506.31 L 369.54 504.89 L 371.03 503.74 L 372.45 503.00 L 373.83 502.61 L 375.92 502.42 L 377.49 502.56 L 379.03 502.94" fill="none" group-id="2,10,41,91,129" id="路径_608" node-id="71" stroke="#ffe6c4" stroke-linecap="round" stroke-width="3" target-height="21.79007" target-width="13.563263" target-x="365.4681" target-y="502.4161"></path><path d="M 363.25 543.80 L 364.58 543.56 L 365.94 543.43 L 367.76 543.44 L 369.63 543.71 L 371.55 544.36 L 372.72 545.04 L 373.78 545.98 L 374.73 547.24 L 375.40 548.66 L 375.86 550.54 L 376.06 552.99" fill="none" group-id="2,10,41,91,130" id="路径_609" node-id="72" stroke="#ffe6c4" stroke-linecap="round" stroke-width="3" target-height="9.562012" target-width="12.805664" target-x="363.25195" target-y="543.4287"></path><path d="M 372.09 528.89 L 385.55 543.29" fill="none" group-id="2,10,41,91,131" id="路径_610" node-id="73" stroke="#ffe6c4" stroke-linecap="round" stroke-width="3" target-height="14.399902" target-width="13.4609375" target-x="372.09277" target-y="528.8921"></path><path d="M 349.68 521.06 L 360.80 536.47" fill="none" group-id="2,10,41,91,132" id="路径_611" node-id="74" stroke="#ffe6c4" stroke-linecap="round" stroke-width="3" target-height="15.408203" target-width="11.115234" target-x="349.68262" target-y="521.0615"></path><path d="M 380.44 567.03 L 394.64 551.37" fill="none" group-id="2,10,41,91,133" id="路径_612" node-id="75" stroke="#ffe6c4" stroke-linecap="round" stroke-width="3" target-height="15.661133" target-width="14.199219" target-x="380.44336" target-y="551.37256"></path><path d="M 340.60 558.20 L 360.30 558.20" fill="none" group-id="2,10,41,91,134" id="路径_613" node-id="76" stroke="#ffe6c4" stroke-linecap="round" stroke-width="3" target-height="0" target-width="19.700195" target-x="340.59766" target-y="558.1968"></path><path d="M 350.45 569.56 L 351.62 570.95 L 352.50 572.47 L 353.08 574.13 L 353.37 575.87 L 353.33 577.62 L 352.97 579.41" fill="none" group-id="2,10,41,91,135" id="路径_614" node-id="77" stroke="#ffe6c4" stroke-linecap="round" stroke-width="3" target-height="9.851074" target-width="2.9199219" target-x="350.4463" target-y="569.56006"></path><path d="M 360.30 569.56 L 373.94 581.18" fill="none" group-id="2,10,41,91,136" id="路径_615" node-id="78" stroke="#ffe6c4" stroke-linecap="round" stroke-width="3" target-height="11.619141" target-width="13.639648" target-x="360.29883" target-y="569.56006"></path><path d="M 336.43 468.52 L 337.09 469.10 L 338.43 470.72 L 341.56 475.10 L 344.91 480.11 L 347.58 484.24 L 348.68 485.95" fill="none" group-id="2,10,41,91,137" id="路径_616" node-id="79" stroke="#ffe6c4" stroke-linecap="round" stroke-width="3" target-height="17.42871" target-width="12.244141" target-x="336.43164" target-y="468.52295"></path><path d="M 349.68 411.94 L 349.31 412.44 L 347.96 414.91 L 344.38 422.40 L 339.83 433.03 L 337.49 439.04 L 335.20 445.43 L 333.12 451.91 L 331.37 458.23 L 330.01 464.48 L 329.22 470.04" fill="none" group-id="2,10,41,91,138" id="路径_617" node-id="80" stroke="#ffe6c4" stroke-linecap="round" stroke-width="3" target-height="58.100098" target-width="20.45996" target-x="329.2246" target-y="411.9419"></path><path d="M 329.22 451.04 L 310.28 466.00" fill="none" group-id="2,10,41,91,139" id="路径_618" node-id="81" stroke="#ffe6c4" stroke-linecap="round" stroke-width="3" target-height="14.959961" target-width="18.94336" target-x="310.28027" target-y="451.03613"></path><path d="M 277.70 437.96 L 296.39 422.04" fill="none" group-id="2,10,41,91,140" id="路径_619" node-id="82" stroke="#ffe6c4" stroke-linecap="round" stroke-width="3" target-height="15.9140625" target-width="18.69043" target-x="277.6963" target-y="422.04492"></path><path d="M 219.35 433.92 L 239.55 433.92" fill="none" group-id="2,10,41,91,141" id="路径_620" node-id="83" stroke="#ffe6c4" stroke-linecap="round" stroke-width="3" target-height="0" target-width="20.207031" target-x="219.34766" target-y="433.9165"></path><path d="M 263.05 429.52 L 250.16 446.04" fill="none" group-id="2,10,41,91,142" id="路径_621" node-id="84" stroke="#ffe6c4" stroke-linecap="round" stroke-width="3" target-height="16.518066" target-width="12.8828125" target-x="250.16309" target-y="429.5249"></path><path d="M 275.68 413.20 L 275.57 415.47 L 275.58 419.23 L 275.64 422.76 L 275.68 424.32" fill="none" group-id="2,10,41,91,143" id="路径_622" node-id="85" stroke="#ffe6c4" stroke-linecap="round" stroke-width="3" target-height="11.11377" target-width="0.10644531" target-x="275.5703" target-y="413.2041"></path><path d="M 252.95 417.25 L 252.27 417.67 L 250.96 418.84 L 248.08 421.86 L 245.49 424.78 L 244.36 426.09" fill="none" group-id="2,10,41,91,144" id="路径_623" node-id="86" stroke="#ffe6c4" stroke-linecap="round" stroke-width="3" target-height="8.84082" target-width="8.588867" target-x="244.35742" target-y="417.24707"></path><path d="M 189.60 407.35 L 196.78 462.80 L 319.48 461.01 L 320.83 401.22 L 291.38 398.08 L 291.38 438.44 L 222.79 439.94 L 218.60 399.14 Z" fill="#673b95" fill-rule="nonzero" group-id="2,10,41,92" id="路径_589" node-id="87" stroke="none" target-height="64.717285" target-width="131.22852" target-x="189.60059" target-y="398.0835"></path></g><path d="M 177.92 604.42 L 164.28 685.75 L 267.08 683.23 L 259.25 654.93 L 333.01 640.79 L 347.15 683.22 L 360.54 687.27 L 360.32 680.05 L 359.56 672.90 L 358.27 665.79 L 356.21 657.79 L 353.02 645.95 L 349.36 632.64 L 345.92 620.22 L 343.36 611.03 L 342.35 607.45 Z" fill="#673b95" fill-rule="nonzero" group-id="2,11,42" id="路径_626" node-id="89" stroke="none" target-height="82.84912" target-width="196.26074" target-x="164.2793" target-y="604.416"></path><path d="M 185.11 656.21 L 185.86 654.34 L 188.23 649.72 L 190.02 646.93 L 192.41 643.84 L 195.19 640.93 L 198.58 638.19 L 201.07 636.62 L 203.84 635.30 L 206.93 634.24 L 211.93 633.14 L 217.84 632.40 L 223.96 632.11 L 230.30 632.29 L 236.58 633.00 L 242.43 634.24 L 246.18 635.44 L 249.47 636.89 L 252.34 638.57 L 254.89 640.64 L 256.81 642.97 L 258.17 645.59 L 258.96 648.49 L 260.34 655.39 L 263.53 674.68 L 267.44 700.97 L 271.77 731.79 L 276.23 764.67 L 280.53 797.12 L 284.39 826.67 L 287.51 850.84 L 289.59 867.16 L 290.35 873.15 L 288.70 873.12 L 284.74 873.06 L 279.92 873.01 L 275.72 873.02 L 273.60 873.15 L 270.51 873.90 L 263.54 875.51 L 254.68 877.54 L 245.90 879.55 L 239.18 881.08 L 236.50 881.69 Z" fill="#f0bfb9" fill-rule="nonzero" group-id="2,11,43" id="路径_627" node-id="90" stroke="none" target-height="249.58008" target-width="105.234375" target-x="185.11328" target-y="632.1089"></path><path d="M 259.78 650.14 L 262.26 657.78 L 267.26 673.63 L 274.20 695.82 L 282.48 722.47 L 291.54 751.68 L 300.80 781.56 L 309.68 810.25 L 317.59 835.84 L 323.96 856.45 L 328.20 870.20 L 329.75 875.20 L 351.72 866.11 L 353.86 866.43 L 358.99 867.21 L 365.20 868.18 L 370.57 869.09 L 373.19 869.65 L 373.79 869.67 L 375.40 869.31 L 379.26 868.07 L 382.92 866.73 L 384.56 866.11 L 380.77 859.29 L 379.54 853.62 L 376.18 838.17 L 371.18 815.27 L 365.04 787.23 L 358.23 756.39 L 351.25 725.07 L 344.61 695.61 L 338.77 670.31 L 334.25 651.52 L 332.45 644.67 L 331.52 641.56 L 330.31 639.08 L 328.62 636.86 L 326.39 634.88 L 323.86 633.23 L 320.97 631.77 L 317.70 630.52 L 312.58 629.09 L 307.14 628.07 L 301.64 627.45 L 296.42 627.17 L 291.37 627.18 L 287.22 627.41 L 283.48 627.89 L 281.25 628.42 L 278.83 629.31 L 275.74 630.63 L 272.59 632.20 L 269.33 634.11 L 266.23 636.27 L 263.52 638.64 L 261.93 640.40 L 260.72 642.20 L 259.83 644.05 L 259.33 646.00 L 259.31 648.01 L 259.78 650.14 Z" fill="#f0bfb9" fill-rule="nonzero" group-id="2,11,44" id="路径_628" node-id="91" stroke="none" target-height="248.03564" target-width="125.25391" target-x="259.30566" target-y="627.16846"></path><path d="M 233.68 875.21 L 234.87 873.70 L 238.20 870.09 L 240.51 867.98 L 243.36 865.72 L 246.50 863.69 L 250.04 861.93 L 252.53 861.03 L 255.14 860.41 L 257.89 860.07 L 262.12 860.19 L 266.50 860.92 L 270.84 862.11 L 275.00 863.60 L 278.98 865.30 L 282.40 866.96 L 287.73 869.85 L 290.03 871.13 L 290.21 871.53 L 290.74 873.86 L 291.95 880.57 L 293.37 889.27 L 294.73 897.96 L 295.75 904.63 L 296.16 907.30 L 231.29 908.50 Z" fill="#2f65e5" fill-rule="nonzero" group-id="2,11,45" id="路径_629" node-id="92" stroke="none" target-height="48.429688" target-width="64.86621" target-x="231.28906" target-y="860.0713"></path><path d="M 239.82 892.02 L 288.75 892.02 L 288.75 895.71 L 239.82 895.71 Z" fill="#d4f1ff" fill-rule="nonzero" group-id="2,11,46" id="矩形_140" node-id="93" stroke="none" target-height="3.6929932" target-width="48.929016" target-x="239.8233" target-y="892.022"></path><path d="M 327.63 875.20 L 328.90 873.44 L 332.39 869.20 L 334.75 866.68 L 337.59 864.02 L 340.68 861.57 L 344.02 859.47 L 346.39 858.34 L 348.77 857.56 L 351.20 857.10 L 355.98 856.89 L 361.16 857.11 L 366.34 857.66 L 371.11 858.38 L 378.83 859.93 L 382.13 860.78 L 383.18 862.08 L 385.07 864.88 L 386.99 868.04 L 388.11 870.44 L 388.66 873.98 L 389.59 881.13 L 390.68 890.00 L 391.73 898.69 L 392.51 905.30 L 392.82 907.92 L 327.63 906.77 Z" fill="#2f65e5" fill-rule="nonzero" group-id="2,11,47" id="路径_630" node-id="94" stroke="none" target-height="51.03125" target-width="65.18945" target-x="327.63184" target-y="856.88965"></path><path d="M 336.76 892.02 L 382.92 892.02 L 382.92 894.79 L 336.76 894.79 Z" fill="#d4f1ff" fill-rule="nonzero" group-id="2,11,48" id="矩形_141" node-id="95" stroke="none" target-height="2.7700195" target-width="46.158997" target-x="336.7573" target-y="892.022"></path><path d="M 106.88 606.76 L 127.19 606.76 L 127.19 909.56 L 106.88 909.56 Z" fill="#7971a2" fill-rule="nonzero" group-id="2,12,49" id="矩形_138-2" node-id="97" stroke="none" target-height="302.805" target-width="20.309998" target-x="106.88352" target-y="606.7571"></path><path d="M 528.78 606.76 L 549.09 606.76 L 549.09 909.56 L 528.78 909.56 Z" fill="#7971a2" fill-rule="nonzero" group-id="2,12,50" id="矩形_139-2" node-id="98" stroke="none" target-height="302.805" target-width="20.309998" target-x="528.7805" target-y="606.7571"></path><path d="M 67.19 578.14 L 588.79 578.14 L 588.79 611.37 L 67.19 611.37 Z" fill="#223ea1" fill-rule="nonzero" group-id="2,12,51" id="矩形_137-2" node-id="99" stroke="none" target-height="33.234985" target-width="521.601" target-x="67.18652" target-y="578.1381"></path><path d="M 181.99 459.08 L 334.02 457.43 L 335.66 579.92 L 183.63 579.92 Z" fill="#cfcccb" fill-rule="nonzero" group-id="2,12,52" id="路径_625" node-id="100" stroke="none" target-height="122.48193" target-width="153.67773" target-x="181.98633" target-y="457.43408"></path><path d="M 441.08 567.98 L 434.77 567.98 L 432.21 567.75 L 429.87 567.11 L 427.70 566.07 L 425.74 564.68 L 424.07 563.01 L 422.68 561.05 L 421.64 558.88 L 421.00 556.54 L 420.77 553.98 L 420.77 531.06 L 441.08 531.06 Z M 428.15 534.75 L 428.15 554.14 L 428.31 555.82 L 428.73 557.36 L 429.42 558.79 L 430.86 560.66 L 432.73 562.10 L 434.16 562.79 L 435.70 563.21 L 437.38 563.37 L 437.38 534.75 Z" fill="#e98e2b" fill-rule="nonzero" group-id="2,13,53" id="减去_10" node-id="102" stroke="none" target-height="36.92798" target-width="20.309998" target-x="420.7666" target-y="531.0559"></path><path d="M 439.23 520.90 L 496.47 520.90 L 496.47 520.90 L 496.47 558.14 L 496.13 561.79 L 495.22 565.13 L 493.74 568.23 L 491.75 571.04 L 489.37 573.42 L 486.56 575.41 L 483.46 576.89 L 480.12 577.80 L 476.47 578.14 L 459.23 578.14 L 455.58 577.80 L 452.23 576.89 L 449.14 575.41 L 446.33 573.42 L 443.95 571.04 L 441.96 568.23 L 440.48 565.13 L 439.57 561.79 L 439.23 558.14 L 439.23 520.90 L 439.23 520.90 Z" fill="#e78c29" fill-rule="nonzero" group-id="2,13,54" id="矩形_142" node-id="103" stroke="none" target-height="57.237976" target-width="57.238007" target-x="439.2306" target-y="520.9009"></path><path d="M 439.23 539.36 L 496.47 539.36 L 496.47 552.29 L 439.23 552.29 Z" fill="#ffdab2" fill-rule="nonzero" group-id="2,13,55" id="矩形_145" node-id="104" stroke="none" target-height="12.924988" target-width="57.238007" target-x="439.2306" target-y="539.36487"></path><path d="M 561.35 768.84 L 561.41 766.45 L 561.64 764.02 L 562.22 760.67 L 563.19 757.21 L 564.74 753.56 L 566.11 751.26 L 567.83 749.14 L 569.93 747.19 L 572.30 745.62 L 575.20 744.42 L 578.72 743.61 L 583.34 743.26 L 587.38 743.43 L 590.90 744.05 L 593.99 745.09 L 596.96 746.61 L 599.57 748.48 L 601.86 750.69 L 603.85 753.29 L 605.99 757.12 L 607.69 761.45 L 608.92 766.36 L 609.15 768.85 L 608.96 771.41 L 608.33 774.07 L 606.80 777.96 L 604.63 781.88 L 602.06 785.61 L 599.25 789.11 L 596.31 792.37 L 593.63 795.10 L 589.20 799.18 L 587.41 800.69 L 561.35 787.45 Z" fill="#1aa297" fill-rule="nonzero" group-id="3,14,56" id="路径_584" node-id="107" stroke="none" target-height="57.43164" target-width="47.80664" target-x="561.3457" target-y="743.25854"></path><path d="M 578.95 757.74 L 579.59 759.00 L 579.86 760.09 L 579.79 761.06 L 579.38 761.62 L 578.71 761.76 L 577.79 761.43 L 576.91 760.74 L 576.02 759.64 L 575.37 758.38 L 575.10 757.29 L 575.17 756.32 L 575.58 755.76 L 576.25 755.61 L 577.17 755.94 L 578.06 756.64 L 578.95 757.74 Z" fill="#007f72" fill-rule="nonzero" group-id="3,14,57" id="椭圆_145" node-id="108" stroke="none" target-height="6.1487427" target-width="4.7631226" target-x="575.1003" target-y="755.61487"></path><path d="M 591.72 752.53 L 592.37 753.79 L 592.64 754.88 L 592.57 755.86 L 592.16 756.41 L 591.48 756.56 L 590.57 756.23 L 589.68 755.54 L 588.79 754.44 L 588.15 753.18 L 587.88 752.09 L 587.95 751.11 L 588.35 750.55 L 589.03 750.41 L 589.95 750.74 L 590.83 751.43 L 591.72 752.53 Z" fill="#007f72" fill-rule="nonzero" group-id="3,14,58" id="椭圆_146" node-id="109" stroke="none" target-height="6.1487427" target-width="4.7631226" target-x="587.8753" target-y="750.40985"></path><path d="M 588.36 765.50 L 589.00 766.76 L 589.28 767.85 L 589.20 768.82 L 588.80 769.38 L 588.12 769.52 L 587.20 769.19 L 586.32 768.50 L 585.43 767.40 L 584.79 766.14 L 584.51 765.05 L 584.58 764.08 L 584.99 763.52 L 585.67 763.37 L 586.58 763.70 L 587.47 764.40 L 588.36 765.50 Z" fill="#007f72" fill-rule="nonzero" group-id="3,14,59" id="椭圆_147" node-id="110" stroke="none" target-height="6.1487427" target-width="4.7631226" target-x="584.51227" target-y="763.37384"></path><path d="M 592.79 790.35 L 591.51 788.13 L 587.88 782.71 L 585.32 779.46 L 582.14 775.96 L 578.58 772.68 L 574.57 769.74 L 571.68 768.10 L 568.65 766.83 L 565.44 765.93 L 562.16 765.50 L 558.70 765.64 L 555.02 766.38 L 552.40 767.30 L 549.63 768.66 L 546.70 770.53 L 543.56 772.98 L 540.18 776.16 L 537.41 779.20 L 535.20 782.10 L 533.48 784.88 L 531.57 788.89 L 530.37 792.65 L 529.77 796.21 L 529.66 799.84 L 529.97 803.23 L 530.69 806.43 L 531.75 809.54 L 533.01 812.37 L 534.46 814.95 L 536.95 818.50 L 539.34 821.22 L 541.80 823.46 L 543.56 824.68 L 549.42 827.74 L 557.63 831.81 L 566.10 835.93 L 572.73 839.12 L 575.41 840.39 L 597.75 836.26 Z" fill="#13ab9f" fill-rule="nonzero" group-id="3,15,60" id="路径_583" node-id="112" stroke="none" target-height="74.888916" target-width="68.083984" target-x="529.66406" target-y="765.50415"></path><path d="M 543.28 794.17 L 543.93 795.43 L 544.20 796.52 L 544.13 797.49 L 543.72 798.05 L 543.05 798.20 L 542.13 797.87 L 541.24 797.17 L 540.35 796.07 L 539.71 794.81 L 539.44 793.72 L 539.51 792.75 L 539.92 792.19 L 540.59 792.05 L 541.51 792.38 L 542.39 793.07 L 543.28 794.17 Z" fill="#007f72" fill-rule="nonzero" group-id="3,15,61" id="椭圆_139" node-id="113" stroke="none" target-height="6.1487427" target-width="4.7631226" target-x="539.43713" target-y="792.04803"></path><path d="M 548.67 778.75 L 549.31 780.01 L 549.59 781.10 L 549.51 782.07 L 549.11 782.63 L 548.43 782.77 L 547.51 782.44 L 546.63 781.75 L 545.74 780.65 L 545.10 779.39 L 544.82 778.30 L 544.89 777.33 L 545.30 776.77 L 545.98 776.62 L 546.89 776.95 L 547.78 777.65 L 548.67 778.75 Z" fill="#007f72" fill-rule="nonzero" group-id="3,15,62" id="椭圆_140" node-id="114" stroke="none" target-height="6.1487427" target-width="4.7631226" target-x="544.82214" target-y="776.6241"></path><path d="M 559.44 778.84 L 560.08 780.10 L 560.36 781.19 L 560.29 782.16 L 559.88 782.72 L 559.20 782.87 L 558.29 782.54 L 557.40 781.85 L 556.51 780.75 L 555.87 779.48 L 555.60 778.39 L 555.67 777.42 L 556.07 776.86 L 556.75 776.72 L 557.67 777.05 L 558.55 777.74 L 559.44 778.84 Z" fill="#007f72" fill-rule="nonzero" group-id="3,15,63" id="椭圆_141" node-id="115" stroke="none" target-height="6.1487427" target-width="4.7631226" target-x="555.5951" target-y="776.71906"></path><path d="M 556.89 794.17 L 557.53 795.43 L 557.80 796.52 L 557.73 797.49 L 557.32 798.05 L 556.65 798.20 L 555.73 797.87 L 554.85 797.17 L 553.96 796.07 L 553.31 794.81 L 553.04 793.72 L 553.11 792.75 L 553.52 792.19 L 554.19 792.05 L 555.11 792.38 L 556.00 793.07 L 556.89 794.17 Z" fill="#007f72" fill-rule="nonzero" group-id="3,15,64" id="椭圆_142" node-id="116" stroke="none" target-height="6.1487427" target-width="4.7631226" target-x="553.0401" target-y="792.04803"></path><path d="M 546.65 812.05 L 547.30 813.32 L 547.57 814.41 L 547.50 815.38 L 547.09 815.94 L 546.42 816.08 L 545.50 815.75 L 544.61 815.06 L 543.72 813.96 L 543.08 812.70 L 542.81 811.61 L 542.88 810.64 L 543.28 810.08 L 543.96 809.93 L 544.88 810.26 L 545.76 810.95 L 546.65 812.05 Z" fill="#007f72" fill-rule="nonzero" group-id="3,15,65" id="椭圆_143" node-id="117" stroke="none" target-height="6.1487427" target-width="4.7631226" target-x="542.80615" target-y="809.93207"></path><path d="M 566.17 812.05 L 566.82 813.32 L 567.09 814.41 L 567.02 815.38 L 566.61 815.94 L 565.94 816.08 L 565.02 815.75 L 564.13 815.06 L 563.24 813.96 L 562.60 812.70 L 562.33 811.61 L 562.40 810.64 L 562.81 810.08 L 563.48 809.93 L 564.40 810.26 L 565.28 810.95 L 566.17 812.05 Z" fill="#007f72" fill-rule="nonzero" group-id="3,15,66" id="椭圆_144" node-id="118" stroke="none" target-height="6.1487427" target-width="4.7631226" target-x="562.32715" target-y="809.93207"></path><path d="M 592.37 838.33 L 590.96 836.09 L 587.59 830.07 L 585.62 826.09 L 583.53 821.32 L 581.65 816.29 L 580.05 810.88 L 578.93 805.33 L 578.44 799.79 L 578.53 796.10 L 579.03 792.55 L 579.96 789.11 L 581.94 784.15 L 584.08 780.00 L 586.36 776.54 L 589.01 773.35 L 591.75 770.71 L 594.59 768.58 L 597.65 766.78 L 600.78 765.35 L 603.98 764.27 L 608.92 763.18 L 613.88 762.63 L 618.03 762.62 L 622.88 763.16 L 626.14 763.85 L 629.41 764.86 L 632.70 766.22 L 635.81 767.92 L 638.70 770.03 L 641.37 772.58 L 643.10 774.71 L 644.60 777.13 L 645.88 779.88 L 646.92 782.99 L 647.57 786.10 L 647.90 789.64 L 647.85 793.65 L 647.38 798.21 L 646.28 803.07 L 644.64 807.59 L 642.46 811.80 L 639.83 815.76 L 636.91 819.43 L 633.67 822.81 L 628.44 827.41 L 623.13 831.30 L 617.73 834.69 L 612.97 837.30 L 608.46 839.50 L 605.32 840.87 L 602.30 842.05 Z" fill="#05b7a6" fill-rule="nonzero" group-id="3,16,67" id="路径_582" node-id="120" stroke="none" target-height="79.43408" target-width="69.46289" target-x="578.43555" target-y="762.6179"></path><path d="M 622.88 811.14 L 622.19 812.38 L 621.44 813.21 L 620.59 813.70 L 619.90 813.67 L 619.41 813.19 L 619.17 812.25 L 619.25 811.13 L 619.66 809.77 L 620.35 808.53 L 621.10 807.70 L 621.94 807.21 L 622.63 807.24 L 623.13 807.72 L 623.37 808.66 L 623.29 809.78 L 622.88 811.14 Z" fill="#007f72" fill-rule="nonzero" group-id="3,16,68" id="椭圆_134" node-id="121" stroke="none" target-height="6.4823" target-width="4.205078" target-x="619.1659" target-y="807.21375"></path><path d="M 616.93 790.65 L 616.25 791.88 L 615.50 792.72 L 614.65 793.20 L 613.96 793.18 L 613.46 792.70 L 613.22 791.75 L 613.30 790.63 L 613.72 789.28 L 614.40 788.04 L 615.15 787.21 L 616.00 786.72 L 616.69 786.75 L 617.19 787.23 L 617.43 788.17 L 617.35 789.29 L 616.93 790.65 Z" fill="#007f72" fill-rule="nonzero" group-id="3,16,69" id="椭圆_135" node-id="122" stroke="none" target-height="6.4823" target-width="4.205078" target-x="613.2229" target-y="786.72174"></path><path d="M 640.32 786.75 L 639.63 787.99 L 638.88 788.82 L 638.03 789.31 L 637.34 789.28 L 636.85 788.80 L 636.61 787.86 L 636.69 786.74 L 637.10 785.38 L 637.79 784.14 L 638.54 783.31 L 639.38 782.82 L 640.07 782.85 L 640.57 783.33 L 640.81 784.27 L 640.73 785.40 L 640.32 786.75 Z" fill="#007f72" fill-rule="nonzero" group-id="3,16,70" id="椭圆_136" node-id="123" stroke="none" target-height="6.4823" target-width="4.205078" target-x="636.6059" target-y="782.82477"></path><path d="M 606.29 779.74 L 605.61 780.98 L 604.86 781.82 L 604.01 782.30 L 603.32 782.28 L 602.82 781.80 L 602.58 780.85 L 602.66 779.73 L 603.08 778.38 L 603.76 777.14 L 604.51 776.31 L 605.36 775.82 L 606.05 775.85 L 606.55 776.33 L 606.79 777.27 L 606.71 778.39 L 606.29 779.74 Z" fill="#007f72" fill-rule="nonzero" group-id="3,16,71" id="椭圆_137" node-id="124" stroke="none" target-height="6.4823" target-width="4.205078" target-x="602.5839" target-y="775.82074"></path><path d="M 593.78 801.37 L 593.10 802.61 L 592.35 803.45 L 591.50 803.93 L 590.81 803.91 L 590.31 803.43 L 590.07 802.48 L 590.15 801.36 L 590.57 800.01 L 591.25 798.77 L 592.00 797.94 L 592.85 797.45 L 593.54 797.48 L 594.04 797.96 L 594.28 798.90 L 594.20 800.02 L 593.78 801.37 Z" fill="#007f72" fill-rule="nonzero" group-id="3,16,72" id="椭圆_138" node-id="125" stroke="none" target-height="6.4823" target-width="4.205078" target-x="590.0739" target-y="797.45074"></path><path d="M 547.20 840.36 L 556.29 909.56 L 616.40 909.56 L 622.69 840.36 Z" fill="#f38518" fill-rule="nonzero" group-id="3,17" id="路径_581" node-id="126" stroke="none" target-height="69.20581" target-width="75.49414" target-x="547.19824" target-y="840.3572"></path><path d="M 539.94 830.76 L 631.61 830.76 L 631.61 851.13 L 539.94 851.13 Z" fill="#fcbd7e" fill-rule="nonzero" group-id="3,18" id="矩形_136" node-id="127" stroke="none" target-height="20.37201" target-width="91.676025" target-x="539.93555" target-y="830.7571"></path><path d="M 153.00 238.00 L 152.76 242.46 L 152.11 246.73 L 151.07 250.81 L 149.62 254.74 L 147.79 258.52 L 145.65 262.05 L 143.19 265.34 L 140.41 268.41 L 137.34 271.19 L 134.05 273.65 L 130.52 275.79 L 126.74 277.62 L 122.81 279.07 L 118.73 280.11 L 114.46 280.76 L 110.00 281.00 L 105.54 280.76 L 101.27 280.11 L 97.19 279.07 L 93.26 277.62 L 89.48 275.79 L 85.95 273.65 L 82.66 271.19 L 79.59 268.41 L 76.81 265.34 L 74.35 262.05 L 72.21 258.52 L 70.38 254.74 L 68.93 250.81 L 67.89 246.73 L 67.24 242.46 L 67.00 238.00 L 67.24 233.54 L 67.89 229.27 L 68.93 225.19 L 70.38 221.26 L 72.21 217.48 L 74.35 213.95 L 76.81 210.66 L 79.59 207.59 L 82.66 204.81 L 85.95 202.35 L 89.48 200.21 L 93.26 198.38 L 97.19 196.93 L 101.27 195.89 L 105.54 195.24 L 110.00 195.00 L 114.46 195.24 L 118.73 195.89 L 122.81 196.93 L 126.74 198.38 L 130.52 200.21 L 134.05 202.35 L 137.34 204.81 L 140.41 207.59 L 143.19 210.66 L 145.65 213.95 L 147.79 217.48 L 149.62 221.26 L 151.07 225.19 L 152.11 229.27 L 152.76 233.54 L 153.00 238.00 Z" fill="#ffffff" fill-rule="nonzero" group-id="4,19" id="椭圆_133" node-id="129" stroke="none" target-height="86" target-width="86" target-x="67" target-y="195"></path><path d="M 110.00 214.00 L 110.00 214.00 L 110.78 214.16 L 111.41 214.59 L 111.84 215.22 L 112.00 216.00 L 112.00 239.00 L 111.84 239.78 L 111.41 240.41 L 110.78 240.84 L 110.00 241.00 L 110.00 241.00 L 109.22 240.84 L 108.59 240.41 L 108.16 239.78 L 108.00 239.00 L 108.00 216.00 L 108.16 215.22 L 108.59 214.59 L 109.22 214.16 L 110.00 214.00 Z" fill="#1290f1" fill-rule="nonzero" group-id="4,20" id="矩形_134" node-id="130" stroke="none" target-height="27" target-width="4" target-x="108" target-y="214"></path><path d="M 145.00 239.00 L 145.00 239.00 L 144.84 239.78 L 144.41 240.41 L 143.78 240.84 L 143.00 241.00 L 110.00 241.00 L 109.22 240.84 L 108.59 240.41 L 108.16 239.78 L 108.00 239.00 L 108.00 239.00 L 108.16 238.22 L 108.59 237.59 L 109.22 237.16 L 110.00 237.00 L 143.00 237.00 L 143.78 237.16 L 144.41 237.59 L 144.84 238.22 L 145.00 239.00 Z" fill="#1290f1" fill-rule="nonzero" group-id="4,21" id="矩形_135" node-id="131" stroke="none" target-height="4" target-width="37" target-x="108" target-y="237"></path><path d="M 753.52 683.06 L 754.08 687.72 L 755.62 700.40 L 757.90 719.14 L 760.67 741.96 L 763.70 766.90 L 766.74 792.01 L 769.56 815.31 L 771.93 834.83 L 773.59 848.62 L 774.32 854.71 L 774.67 855.38 L 775.59 855.96 L 777.45 856.41 L 780.54 856.65 L 784.83 856.60 L 789.37 856.30 L 794.31 855.81 L 803.74 854.58 L 810.97 853.45 L 813.86 852.95 L 808.30 684.52 Z" fill="#f4c3b5" fill-rule="nonzero" group-id="5,22,73,93" id="路径_575" node-id="135" stroke="none" target-height="173.59766" target-width="60.344727" target-x="753.5166" target-y="683.05566"></path><path d="M 770.52 847.27 L 772.93 848.33 L 775.48 849.32 L 779.14 850.54 L 783.11 851.59 L 787.63 852.40 L 792.26 852.75 L 796.88 852.45 L 802.63 851.36 L 808.25 849.90 L 813.77 848.09 L 819.19 845.92 L 823.02 906.31 L 713.96 906.31 L 713.21 904.60 L 712.63 902.85 L 712.16 900.50 L 712.08 898.04 L 712.61 895.49 L 713.70 893.09 L 715.41 890.62 L 717.82 888.03 L 720.57 885.82 L 724.12 883.72 L 728.61 881.75 L 736.16 879.36 L 744.19 877.04 L 748.09 875.77 L 751.58 874.43 L 754.78 872.85 L 757.23 871.16 L 758.93 869.39 L 760.86 866.77 L 762.66 863.85 L 764.44 860.61 L 767.53 854.25 L 769.70 849.28 L 770.52 847.27 Z" fill="#d76202" fill-rule="nonzero" group-id="5,22,73,94" id="路径_576" node-id="136" stroke="none" target-height="60.388184" target-width="110.93848" target-x="712.08203" target-y="845.91846"></path><g clip-path="url(#clip-path-2)" group-id="5,22,73,95" id="蒙版组_24" node-id="137"><path d="M 823.70 899.53 L 711.73 901.78 L 713.12 906.29 L 824.22 906.29" fill="#903700" fill-rule="nonzero" group-id="5,22,73,95,145" id="路径_577" node-id="138" stroke="none" target-height="6.7592773" target-width="112.48633" target-x="711.73047" target-y="899.53076"></path><path d="M 782.43 847.71 L 782.41 850.64 L 782.25 853.67 L 781.82 857.90 L 781.09 862.36 L 779.90 867.21 L 778.82 870.41 L 777.48 873.43 L 775.86 876.30 L 773.90 878.92 L 771.60 881.10 L 768.93 882.89 L 764.30 884.97 L 758.67 886.87 L 752.74 888.42 L 746.58 889.74 L 740.44 890.81 L 734.87 891.64 L 725.71 892.72 L 721.26 893.12 L 718.47 893.19 L 714.52 893.18 L 711.00 893.14 L 709.48 893.12" fill="none" group-id="5,22,73,95,146" id="路径_578" node-id="139" stroke="#ff9d42" stroke-linecap="butt" stroke-width="2" target-height="45.478516" target-width="72.95703" target-x="709.47754" target-y="847.7129"></path><path d="M 779.85 859.67 L 782.95 860.66 L 786.34 861.44 L 791.59 862.19 L 795.31 862.46 L 799.67 862.46 L 804.75 862.13 L 809.76 861.43 L 815.29 860.18 L 821.42 858.30" fill="none" group-id="5,22,73,95,147" id="路径_579" node-id="140" stroke="#ff9d42" stroke-linecap="butt" stroke-width="2" target-height="4.1601563" target-width="41.56836" target-x="779.8496" target-y="858.3032"></path></g><path d="M 862.44 671.62 L 863.77 676.47 L 867.37 689.65 L 872.70 709.13 L 879.18 732.86 L 886.26 758.78 L 893.38 784.86 L 899.98 809.05 L 905.50 829.30 L 909.38 843.56 L 911.06 849.80 L 911.51 850.41 L 912.50 850.86 L 914.40 851.05 L 917.50 850.86 L 921.74 850.20 L 926.19 849.28 L 931.01 848.10 L 940.18 845.58 L 947.19 843.45 L 949.98 842.56 L 918.39 659.02 Z" fill="#f4c3b5" fill-rule="nonzero" group-id="5,22,74,96" id="路径_575-2" node-id="142" stroke="none" target-height="192.02405" target-width="87.534" target-x="862.444" target-y="659.0223"></path><path d="M 906.27 842.96 L 908.80 843.68 L 911.47 844.31 L 915.26 845.00 L 919.34 845.49 L 923.93 845.67 L 928.56 845.36 L 933.10 844.43 L 938.63 842.54 L 944.00 840.32 L 949.21 837.76 L 954.28 834.85 L 966.48 894.12 L 858.48 909.30 L 857.50 907.72 L 856.68 906.06 L 855.89 903.80 L 855.47 901.37 L 855.64 898.77 L 856.39 896.25 L 857.73 893.56 L 859.76 890.66 L 862.18 888.09 L 865.40 885.52 L 869.57 882.94 L 876.71 879.53 L 884.34 876.11 L 888.03 874.31 L 891.30 872.49 L 894.25 870.48 L 896.43 868.47 L 897.88 866.48 L 899.42 863.62 L 900.79 860.48 L 902.10 857.02 L 904.28 850.29 L 905.74 845.07 L 906.27 842.96 Z" fill="#d76202" fill-rule="nonzero" group-id="5,22,74,97" id="路径_576-2" node-id="143" stroke="none" target-height="74.44537" target-width="111.01007" target-x="855.46674" target-y="834.85205"></path><g clip-path="url(#clip-path-3)" group-id="5,22,74,98" id="蒙版组_24-2" node-id="144"><path d="M 966.21 887.31 L 855.64 905.13 L 857.64 909.40 L 967.66 893.94" fill="#903700" fill-rule="nonzero" group-id="5,22,74,98,148" id="路径_577-2" node-id="145" stroke="none" target-height="22.084534" target-width="112.01935" target-x="855.64056" target-y="887.31445"></path><path d="M 918.13 841.74 L 918.52 844.64 L 918.78 847.67 L 918.95 851.92 L 918.84 856.44 L 918.33 861.41 L 917.72 864.72 L 916.81 867.90 L 915.60 870.97 L 914.03 873.83 L 912.06 876.31 L 909.66 878.46 L 905.36 881.16 L 900.05 883.82 L 894.40 886.19 L 888.49 888.35 L 882.56 890.27 L 877.15 891.86 L 868.22 894.21 L 863.88 895.22 L 861.12 895.68 L 857.21 896.22 L 853.72 896.67 L 852.20 896.86" fill="none" group-id="5,22,74,98,149" id="路径_578-2" node-id="146" stroke="#ff9d42" stroke-linecap="butt" stroke-width="1.9999999" target-height="55.11676" target-width="66.740906" target-x="852.2041" target-y="841.7429"></path><path d="M 917.23 853.94 L 920.45 854.49 L 923.91 854.79 L 929.22 854.81 L 932.93 854.56 L 937.25 853.95 L 942.24 852.91 L 947.10 851.53 L 952.40 849.52 L 958.21 846.81" fill="none" group-id="5,22,74,98,150" id="路径_579-2" node-id="147" stroke="#ff9d42" stroke-linecap="butt" stroke-width="1.9999999" target-height="8.005127" target-width="40.97278" target-x="917.2348" target-y="846.8057"></path></g><path d="M 750.78 490.83 L 703.68 662.98 L 706.48 665.27 L 709.57 667.62 L 714.37 671.01 L 719.78 674.51 L 726.61 678.51 L 733.97 682.32 L 742.45 686.08 L 748.32 688.32 L 754.54 690.31 L 761.14 692.05 L 769.50 693.80 L 777.11 695.12 L 784.02 696.06 L 794.09 697.01 L 802.06 697.40 L 809.27 697.45 L 813.90 697.31 L 818.15 697.01 L 828.74 628.28 L 832.35 678.08 L 835.35 677.79 L 843.31 677.00 L 854.64 675.79 L 867.76 674.28 L 881.07 672.55 L 893.00 670.70 L 898.18 669.72 L 901.97 668.84 L 913.19 665.98 L 925.87 662.87 L 937.73 660.01 L 946.52 657.93 L 949.95 657.12 L 895.42 483.17 Z" fill="#2a6fb4" fill-rule="nonzero" group-id="5,22,75" id="路径_571" node-id="148" stroke="none" target-height="214.28613" target-width="246.26563" target-x="703.6826" target-y="483.1682"></path><g clip-path="url(#clip-path-4)" group-id="5,22,76" id="蒙版组_23" node-id="149"><path d="M 706.80 646.97 L 717.35 652.45 L 728.10 657.42 L 739.07 661.90 L 750.27 665.89 L 759.52 668.68 L 769.11 671.18 L 778.76 673.36 L 788.15 675.19 L 797.39 676.73 L 805.73 677.88 L 813.69 678.73 L 820.15 679.19 L 826.50 679.70 L 830.28 680.35 L 832.51 681.02 L 833.75 681.66 L 834.36 682.25 L 834.64 682.97 L 834.54 683.71 L 834.01 684.55 L 832.77 685.69 L 830.89 686.92 L 826.62 689.03 L 822.86 690.55 L 821.25 691.12 L 817.36 690.71 L 807.14 689.46 L 792.74 687.38 L 784.72 686.03 L 776.32 684.45 L 767.95 682.65 L 760.01 680.66 L 752.40 678.39 L 745.99 676.02 L 734.27 670.76 L 722.78 665.06 L 711.51 658.93 L 700.47 652.37 Z" fill="#a6cbe8" fill-rule="nonzero" group-id="5,22,76,99" id="路径_572" node-id="150" stroke="none" target-height="44.152832" target-width="134.16797" target-x="700.4697" target-y="646.97095"></path><path d="M 829.42 661.90 L 833.26 661.81 L 843.29 661.32 L 849.76 660.81 L 857.31 660.03 L 865.08 658.98 L 873.13 657.57 L 881.08 655.78 L 888.52 653.58 L 900.47 649.76 L 911.37 646.54 L 921.85 643.46 L 930.91 640.57 L 936.71 638.45 L 941.68 636.25 L 945.90 633.99 L 948.01 632.88 L 949.48 632.35 L 950.49 632.21 L 951.43 632.38 L 952.07 632.81 L 952.49 633.51 L 952.76 634.86 L 952.68 636.66 L 951.84 640.43 L 950.76 643.59 L 950.23 644.91 L 947.21 646.04 L 939.26 648.94 L 928.02 652.91 L 915.15 657.24 L 902.30 661.22 L 896.23 662.91 L 891.12 664.15 L 885.95 665.16 L 879.61 666.14 L 865.93 667.78 L 851.98 669.07 L 839.65 669.99 L 830.87 670.55 L 827.51 670.74 Z" fill="#a6cbe8" fill-rule="nonzero" group-id="5,22,76,100" id="路径_573" node-id="151" stroke="none" target-height="38.524902" target-width="125.24121" target-x="827.51465" target-y="632.21313"></path></g><path d="M 819.01 266.42 L 819.88 285.66 L 842.41 284.45 L 842.41 264.68 Z" fill="#f4bfb1" fill-rule="nonzero" group-id="5,23,77" id="路径_553" node-id="153" stroke="none" target-height="20.974121" target-width="23.399414" target-x="819.0117" target-y="264.6848"></path><path d="M 800.83 235.52 L 800.09 234.68 L 799.29 233.97 L 798.20 233.24 L 796.97 232.79 L 795.62 232.78 L 794.77 233.06 L 793.85 233.72 L 792.84 234.87 L 792.20 236.24 L 792.02 237.69 L 792.28 239.27 L 793.28 241.58 L 794.90 243.86 L 796.87 245.88 L 798.91 247.42 L 801.01 248.48 L 802.55 248.74 L 803.28 251.48 L 804.84 255.21 L 806.19 257.69 L 807.90 260.23 L 810.00 262.84 L 812.34 265.20 L 815.05 267.30 L 818.14 269.14 L 821.45 270.50 L 825.18 271.34 L 829.41 271.62 L 832.81 271.35 L 835.75 270.78 L 838.29 269.97 L 841.82 268.25 L 844.65 266.26 L 847.09 263.97 L 848.98 261.73 L 851.79 257.61 L 852.86 255.97 L 853.55 255.14 L 854.82 255.35 L 856.71 255.12 L 858.67 254.48 L 860.77 253.42 L 862.67 252.00 L 864.22 250.24 L 864.99 248.89 L 865.43 247.41 L 865.56 245.77 L 865.32 244.14 L 864.88 242.86 L 864.25 241.87 L 863.00 240.66 L 861.64 239.87 L 860.22 239.37 L 859.10 239.13 L 857.95 239.03 L 861.46 224.97 L 848.28 207.10 L 821.04 207.10 L 802.88 211.20 L 798.19 221.16 Z" fill="#f9c4bc" fill-rule="nonzero" group-id="5,23,78" id="路径_552" node-id="154" stroke="none" target-height="64.51514" target-width="73.546875" target-x="792.0176" target-y="207.09985"></path><path d="M 802.03 234.87 L 801.89 232.99 L 801.88 228.51 L 802.09 225.84 L 802.55 223.15 L 803.35 220.62 L 804.49 218.63 L 805.51 217.60 L 806.75 216.95 L 808.27 216.67 L 810.51 216.75 L 811.95 217.01 L 813.19 217.45 L 814.16 217.95 L 816.30 219.05 L 817.66 219.50 L 819.76 219.87 L 822.21 220.03 L 825.94 219.96 L 830.82 219.49 L 835.03 218.77 L 842.32 217.02 L 845.45 216.29 L 847.93 215.92 L 849.50 215.90 L 850.82 216.16 L 851.94 216.67 L 853.09 217.83 L 854.22 219.91 L 855.12 222.36 L 855.91 225.31 L 857.09 231.36 L 857.82 236.55 L 858.19 239.38 L 858.56 239.96 L 859.29 239.91 L 860.18 239.42 L 861.29 238.49 L 863.21 236.26 L 863.77 235.06 L 864.59 232.34 L 865.29 229.17 L 865.96 225.05 L 866.43 220.72 L 866.65 216.05 L 866.52 211.38 L 865.98 206.96 L 865.24 204.16 L 864.04 201.42 L 862.35 198.71 L 860.32 196.24 L 857.84 193.91 L 854.89 191.73 L 851.71 189.89 L 848.11 188.31 L 844.05 187.00 L 839.88 186.10 L 835.30 185.58 L 830.28 185.47 L 825.17 185.82 L 820.61 186.49 L 816.54 187.43 L 812.92 188.63 L 809.29 190.20 L 806.20 191.90 L 803.59 193.70 L 801.42 195.60 L 799.42 197.82 L 797.94 199.98 L 796.92 202.10 L 796.31 204.19 L 795.74 207.56 L 795.31 211.29 L 795.06 215.08 L 794.98 218.75 L 795.10 222.32 L 795.40 225.30 L 795.96 227.99 L 796.65 229.67 L 798.12 231.75 L 799.90 233.47 L 802.03 234.87 Z" fill="#702a11" fill-rule="nonzero" group-id="5,23,79" id="路径_554" node-id="155" stroke="none" target-height="54.490723" target-width="71.66211" target-x="794.9844" target-y="185.46997"></path><path d="M 742.90 474.92 L 742.81 476.87 L 742.65 481.56 L 742.52 487.20 L 742.56 492.05 L 742.72 493.84 L 742.90 494.34 L 743.60 494.62 L 746.95 495.58 L 757.16 497.96 L 763.89 499.30 L 772.13 500.71 L 780.80 501.96 L 790.48 503.06 L 800.42 503.83 L 810.84 504.22 L 819.77 504.25 L 829.51 504.11 L 849.35 503.39 L 868.37 502.21 L 884.55 500.75 L 891.31 499.91 L 895.91 499.17 L 898.83 498.49 L 900.07 497.98 L 900.44 497.63 L 900.65 496.45 L 900.83 493.97 L 900.99 487.79 L 901.00 481.00 L 900.94 475.53 L 900.90 473.28 L 813.93 473.28 Z" fill="#fafdea" fill-rule="nonzero" group-id="5,24,80" id="路径_557" node-id="157" stroke="none" target-height="30.973633" target-width="158.47754" target-x="742.5205" target-y="473.2771"></path><path d="M 694.59 300.24 L 694.58 297.70 L 694.54 291.44 L 694.44 283.54 L 694.30 276.08 L 694.08 271.12 L 693.67 269.22 L 692.76 267.33 L 691.45 265.69 L 689.83 264.49 L 688.60 264.01 L 687.30 263.87 L 685.89 264.09 L 684.58 264.68 L 683.15 265.80 L 681.57 267.63 L 679.70 270.82 L 678.36 274.23 L 677.44 277.74 L 676.90 280.97 L 676.52 286.28 L 676.54 288.55 L 674.98 286.94 L 671.04 282.59 L 665.84 276.81 L 660.50 270.91 L 656.13 266.19 L 654.54 264.84 L 652.99 264.01 L 651.46 263.62 L 649.88 263.59 L 648.45 263.89 L 647.13 264.53 L 646.00 265.45 L 645.14 266.60 L 644.54 268.01 L 644.29 269.52 L 644.44 271.22 L 645.06 273.17 L 646.30 275.52 L 648.16 278.38 L 652.62 284.21 L 657.27 289.64 L 660.92 293.65 L 662.39 295.22 L 660.78 293.53 L 656.71 289.37 L 651.36 284.05 L 645.89 278.92 L 643.34 276.74 L 641.47 275.32 L 639.92 274.48 L 638.50 274.03 L 637.16 273.92 L 635.84 274.11 L 634.73 274.56 L 633.79 275.27 L 633.08 276.19 L 632.65 277.32 L 632.51 278.69 L 632.72 280.07 L 633.34 281.66 L 634.50 283.52 L 638.53 288.32 L 643.51 293.62 L 648.39 298.52 L 652.10 302.12 L 653.57 303.52 L 651.74 301.98 L 647.19 298.19 L 641.34 293.40 L 635.61 288.85 L 631.42 285.78 L 629.68 284.97 L 628.29 284.75 L 627.11 284.97 L 626.10 285.59 L 625.45 286.48 L 625.13 287.72 L 625.23 289.01 L 625.83 290.49 L 627.11 292.24 L 631.05 296.32 L 636.53 301.87 L 642.16 307.52 L 646.56 311.91 L 648.34 313.68 L 646.45 311.89 L 641.88 307.67 L 636.29 302.69 L 631.33 298.66 L 629.35 297.41 L 628.65 297.27 L 627.93 297.96 L 627.23 299.51 L 626.86 301.37 L 626.81 303.71 L 627.19 306.10 L 628.13 308.55 L 629.02 309.92 L 630.92 312.35 L 635.98 318.20 L 642.08 324.88 L 647.98 331.17 L 652.43 335.85 L 654.19 337.68 Z" fill="#f3c2b4" fill-rule="nonzero" group-id="5,24,81" id="路径_558" node-id="158" stroke="none" target-height="74.08789" target-width="69.4668" target-x="625.1279" target-y="263.5891"></path><path d="M 888.23 509.09 L 886.85 509.93 L 885.49 510.90 L 883.68 512.46 L 881.93 514.32 L 880.19 516.74 L 878.80 519.50 L 877.83 522.82 L 876.68 529.51 L 876.10 534.46 L 876.01 537.58 L 876.26 540.01 L 876.77 541.89 L 877.73 543.63 L 879.04 545.01 L 880.64 545.94 L 882.39 546.32 L 883.57 546.22 L 884.76 545.79 L 886.01 544.96 L 887.19 543.66 L 888.24 541.94 L 889.09 540.06 L 889.76 538.18 L 890.62 534.98 L 890.90 533.62 L 890.50 535.42 L 889.85 539.71 L 889.67 542.27 L 889.72 544.82 L 890.11 547.23 L 890.90 549.09 L 892.01 550.43 L 893.34 551.49 L 894.91 552.26 L 896.61 552.72 L 898.25 552.79 L 899.86 552.51 L 901.30 551.83 L 902.48 550.72 L 903.44 549.07 L 904.16 546.86 L 904.75 544.32 L 905.51 539.27 L 905.87 535.26 L 905.96 533.62 L 906.06 535.79 L 906.43 540.80 L 907.24 546.42 L 907.91 548.91 L 908.63 550.42 L 909.54 551.41 L 910.65 552.19 L 911.99 552.75 L 913.41 553.06 L 914.79 553.06 L 916.15 552.76 L 917.36 552.15 L 918.35 551.18 L 919.14 549.76 L 919.69 547.76 L 920.15 545.01 L 920.67 539.18 L 920.87 534.24 L 920.89 532.16 L 920.95 534.40 L 921.23 539.60 L 921.95 545.48 L 922.58 548.11 L 923.29 549.76 L 923.99 550.50 L 924.85 550.94 L 925.94 551.08 L 927.67 550.76 L 929.67 549.75 L 931.54 548.21 L 933.35 545.99 L 934.78 543.34 L 935.83 540.03 L 936.27 537.04 L 936.47 533.31 L 936.45 529.43 L 936.27 525.39 L 935.63 517.81 L 934.95 512.13 L 934.63 509.89 Z" fill="#f3c2b4" fill-rule="nonzero" group-id="5,24,82" id="路径_559" node-id="159" stroke="none" target-height="43.964844" target-width="60.461914" target-x="876.0127" target-y="509.09204"></path><path d="M 816.24 276.30 L 818.78 276.97 L 821.44 277.53 L 825.23 278.14 L 829.30 278.52 L 833.86 278.56 L 836.93 278.33 L 839.95 277.80 L 842.93 276.99 L 844.28 276.71 L 845.85 276.72 L 847.70 277.05 L 850.41 277.90 L 853.12 279.05 L 857.56 281.40 L 859.40 282.54 L 849.00 291.72 L 821.62 292.76 L 819.44 292.11 L 814.28 290.41 L 808.17 288.01 L 805.31 286.60 L 803.18 285.26 L 802.00 284.22 L 801.45 283.33 L 801.33 282.54 L 802.23 281.39 L 803.41 280.36 L 804.91 279.44 L 807.35 278.35 L 809.89 277.53 L 814.33 276.56 L 816.24 276.30 Z" fill="#fafdea" fill-rule="nonzero" group-id="5,24,83" id="路径_555" node-id="160" stroke="none" target-height="16.465332" target-width="58.066406" target-x="801.33496" target-y="276.29614"></path><path d="M 805.31 278.37 L 808.67 281.16 L 811.19 283.07 L 814.59 285.24 L 818.39 287.15 L 823.01 288.78 L 826.27 289.53 L 829.88 289.94 L 833.91 289.99 L 837.92 289.59 L 841.37 288.94 L 844.33 288.07 L 848.49 286.37 L 851.67 284.63 L 856.36 281.40 L 858.03 280.32 L 858.87 280.11 L 862.80 281.33 L 866.01 282.60 L 870.19 284.54 L 874.50 286.88 L 879.12 289.87 L 882.09 292.13 L 884.93 294.64 L 887.64 297.44 L 890.93 301.47 L 894.32 306.11 L 897.79 311.42 L 902.70 319.64 L 907.55 328.49 L 912.19 337.49 L 916.54 346.24 L 918.70 350.95 L 921.32 357.23 L 926.76 371.47 L 932.25 386.83 L 937.17 401.20 L 940.93 412.44 L 942.91 418.42 L 943.11 419.91 L 943.16 424.03 L 942.73 435.54 L 941.82 450.91 L 940.63 468.08 L 939.36 485.01 L 938.21 499.64 L 937.37 509.92 L 937.04 513.80 L 933.59 513.87 L 924.78 513.92 L 912.91 513.65 L 906.53 513.32 L 900.29 512.80 L 894.25 512.04 L 889.21 511.09 L 885.99 510.19 L 883.64 509.23 L 881.97 508.23 L 883.47 500.17 L 884.79 492.81 L 885.72 487.46 L 886.07 485.39 L 881.80 486.42 L 870.40 488.71 L 862.95 489.93 L 854.06 491.08 L 844.81 491.91 L 834.93 492.32 L 828.28 492.29 L 821.70 491.93 L 815.19 491.24 L 803.21 489.79 L 792.12 488.64 L 781.36 487.50 L 771.72 486.23 L 765.45 485.13 L 759.78 483.79 L 754.67 482.22 L 750.93 480.74 L 747.53 479.02 L 744.45 477.05 L 741.66 474.84 L 741.55 473.02 L 741.61 469.47 L 742.20 460.35 L 743.19 449.14 L 744.36 437.51 L 745.47 427.14 L 746.31 419.70 L 746.64 416.84 L 743.43 415.68 L 734.94 412.24 L 729.43 409.80 L 722.87 406.64 L 716.13 403.12 L 708.92 398.98 L 701.81 394.43 L 694.81 389.36 L 690.33 385.71 L 686.15 381.89 L 682.24 377.88 L 666.63 360.17 L 657.25 348.84 L 651.42 341.22 L 649.43 338.28 L 649.11 337.51 L 649.52 337.06 L 651.91 335.20 L 659.10 329.93 L 668.91 322.52 L 674.21 318.29 L 679.55 313.78 L 684.67 309.10 L 689.22 304.51 L 692.04 301.31 L 694.33 298.32 L 696.14 295.53 L 699.21 297.90 L 705.75 302.92 L 714.33 309.49 L 723.51 316.51 L 731.85 322.88 L 737.91 327.51 L 740.24 329.30 L 742.07 326.69 L 746.94 320.11 L 753.98 311.38 L 758.02 306.79 L 762.28 302.35 L 766.72 298.23 L 770.97 294.86 L 776.31 291.36 L 781.81 288.16 L 787.48 285.25 L 793.29 282.64 L 799.23 280.35 L 805.31 278.37 Z" fill="#f5711e" fill-rule="nonzero" group-id="5,24,84" id="路径_556" node-id="161" stroke="none" target-height="235.54492" target-width="294.0459" target-x="649.1133" target-y="278.3728"></path><g clip-path="url(#clip-path-5)" group-id="5,24,85" id="蒙版组_22" node-id="162"><path d="M 792.32 282.19 L 795.96 285.99 L 799.86 289.38 L 804.03 292.38 L 808.49 294.99 L 813.17 297.19 L 818.00 298.93 L 823.01 300.23 L 828.20 301.08 L 832.89 301.36 L 837.65 301.24 L 842.49 300.71 L 849.64 299.37 L 856.42 297.57 L 862.89 295.41 L 868.36 293.29 L 876.71 289.53 L 879.85 287.91" fill="none" group-id="5,24,85,101" id="路径_560" node-id="163" stroke="#673b1e" stroke-linecap="butt" stroke-width="2" target-height="19.167969" target-width="87.53223" target-x="792.3213" target-y="282.18848"></path><path d="M 751.33 302.89 L 751.96 305.36 L 753.84 311.58 L 755.20 315.46 L 756.93 319.81 L 758.93 324.12 L 761.23 328.28 L 763.86 332.11 L 766.69 335.23 L 768.82 336.96 L 771.01 338.17 L 773.30 338.92 L 775.73 339.14 L 778.62 338.93 L 782.06 338.20 L 787.20 336.55 L 792.96 334.16 L 798.72 331.38 L 804.50 328.34 L 815.16 322.30 L 823.42 317.59 L 826.53 316.09 L 827.79 315.78 L 828.17 316.01 L 828.33 316.66 L 828.07 318.14 L 827.26 320.54 L 825.77 324.06 L 821.85 332.18 L 817.31 341.19 L 813.10 349.74 L 811.36 353.59 L 810.21 356.50 L 809.53 359.28 L 809.41 361.73 L 809.80 363.92 L 810.69 365.94 L 811.98 367.50 L 813.73 368.69 L 815.73 369.35 L 818.17 369.45 L 821.17 368.90 L 824.03 367.77 L 827.37 365.76 L 831.30 362.65 L 835.79 358.34 L 840.71 353.24 L 851.09 342.33 L 856.67 336.87 L 862.56 331.69 L 866.67 328.46 L 870.90 325.58 L 875.26 323.03 L 879.79 320.88 L 884.47 319.25 L 889.30 318.12 L 907.94 314.93 L 912.42 314.32 L 914.56 314.27 L 915.39 314.48 L 915.62 314.92 L 915.10 315.91 L 912.74 318.12 L 910.47 320.21 L 907.69 323.12 L 901.92 329.76 L 896.33 336.60 L 891.83 342.18 L 889.30 345.07 L 888.62 345.98 L 888.08 347.58 L 888.00 349.35 L 888.53 351.26 L 889.25 352.38 L 890.44 353.41 L 892.23 354.34 L 894.18 354.89 L 896.93 355.16 L 900.73 355.03 L 912.60 354.14 L 923.87 353.60 L 932.28 353.34 L 935.59 353.27" fill="none" group-id="5,24,85,102" id="路径_561" node-id="164" stroke="#fab689" stroke-linecap="butt" stroke-width="2" target-height="66.56201" target-width="184.25293" target-x="751.333" target-y="302.8911"></path><path d="M 758.93 484.50 L 758.99 481.78 L 759.34 474.73 L 760.21 465.06 L 760.91 459.77 L 761.83 454.43 L 763.03 449.20 L 764.45 444.53 L 765.64 441.54 L 766.93 439.07 L 768.30 437.04 L 770.72 434.32 L 773.05 432.13 L 775.31 430.41 L 778.88 428.32 L 782.00 427.05 L 785.02 426.28 L 787.25 426.05 L 789.18 426.18 L 789.98 426.50 L 790.23 427.13 L 790.32 428.95 L 790.38 433.90 L 790.67 436.80 L 791.35 439.81 L 792.08 441.73 L 793.10 443.52 L 794.43 445.17 L 796.04 446.53 L 798.14 447.63 L 800.82 448.47 L 803.16 448.65 L 805.77 448.32 L 808.72 447.40 L 813.09 445.36 L 818.04 442.37 L 823.00 438.94 L 828.28 435.03 L 838.96 427.03 L 844.39 423.26 L 849.60 420.02 L 853.17 418.13 L 856.52 416.69 L 859.70 415.66 L 864.63 414.58 L 868.99 413.98 L 872.84 413.79 L 876.68 414.06 L 879.67 414.77 L 882.00 415.84 L 883.46 417.01 L 884.47 418.40 L 885.08 420.08 L 885.28 422.13 L 885.04 424.11 L 884.30 426.50 L 882.94 429.41 L 880.79 432.94 L 876.99 438.20 L 872.77 443.63 L 864.13 454.58 L 860.00 460.18 L 856.32 465.78 L 854.12 469.63 L 852.30 473.44 L 850.84 477.22 L 849.76 481.12 L 849.21 485.00 L 849.15 488.89" fill="none" group-id="5,24,85,103" id="路径_562" node-id="165" stroke="#fab689" stroke-linecap="butt" stroke-width="2" target-height="75.10303" target-width="126.34766" target-x="758.9287" target-y="413.78906"></path><path d="M 677.49 379.63 L 680.60 378.59 L 688.59 376.11 L 699.44 373.11 L 705.34 371.72 L 711.16 370.56 L 716.86 369.72 L 721.72 369.38 L 727.38 369.50 L 731.83 370.06 L 734.60 370.80 L 736.71 371.75 L 738.27 372.89 L 739.42 374.36 L 740.04 376.14 L 740.09 378.36 L 739.60 380.58 L 738.44 383.40 L 736.37 386.95 L 730.68 395.15 L 724.63 403.05 L 718.20 410.68" fill="none" group-id="5,24,85,104" id="路径_563" node-id="166" stroke="#fab689" stroke-linecap="butt" stroke-width="2" target-height="41.302734" target-width="62.60254" target-x="677.4873" target-y="369.37695"></path><path d="M 945.81 436.45 L 943.69 437.00 L 938.68 438.61 L 935.75 439.78 L 932.84 441.20 L 930.17 442.89 L 928.18 444.70 L 927.22 446.10 L 926.76 447.53 L 926.77 449.05 L 927.32 450.98 L 928.19 452.85 L 929.39 454.69 L 931.57 457.19 L 934.13 459.42 L 936.89 461.32 L 939.58 462.77 L 942.25 463.82 L 944.34 464.28" fill="none" group-id="5,24,85,105" id="路径_564" node-id="167" stroke="#fab689" stroke-linecap="butt" stroke-width="2" target-height="27.832031" target-width="19.041992" target-x="926.76465" target-y="436.45215"></path><path d="M 740.15 461.94 L 745.26 463.77 L 750.90 465.54 L 759.75 467.97 L 769.67 470.27 L 782.35 472.63 L 791.14 473.93 L 800.92 475.00 L 811.78 475.83 L 822.61 476.24 L 834.26 476.19 L 846.77 475.64 L 856.04 474.87 L 865.67 473.71 L 875.67 472.14 L 886.05 470.14" fill="none" group-id="5,24,85,106" id="路径_565" node-id="168" stroke="#707070" stroke-linecap="butt" stroke-width="1" target-height="14.30127" target-width="145.89941" target-x="740.15234" target-y="461.9419"></path><path d="M 704.17 298.19 L 702.54 300.73 L 698.10 307.39 L 691.54 316.69 L 683.58 327.18 L 679.27 332.44 L 674.91 337.39 L 670.43 342.03 L 666.22 345.87 L 663.28 348.17 L 660.62 349.90 L 658.21 351.14" fill="none" group-id="5,24,85,107" id="路径_566" node-id="169" stroke="#673b1e" stroke-linecap="butt" stroke-width="2" target-height="52.95117" target-width="45.966797" target-x="658.20703" target-y="298.18994"></path><path d="M 885.28 495.58 L 887.48 496.81 L 889.96 497.98 L 893.98 499.52 L 898.57 500.90 L 904.64 502.20 L 908.89 502.81 L 913.75 503.20 L 919.31 503.34 L 924.84 503.14 L 930.99 502.52 L 937.84 501.44" fill="none" group-id="5,24,85,108" id="路径_567" node-id="170" stroke="#673b1e" stroke-linecap="butt" stroke-width="2" target-height="7.7592773" target-width="52.5625" target-x="885.2803" target-y="495.57813"></path><path d="M 883.76 386.97 L 900.21 436.99 L 886.91 484.76 L 883.76 485.89 L 895.92 438.12 Z" fill="none" group-id="5,24,85,109" id="路径_568" node-id="171" stroke="#707070" stroke-linecap="butt" stroke-width="1" target-height="98.918945" target-width="16.448242" target-x="883.75684" target-y="386.96777"></path><path d="M 756.27 378.16 L 756.69 375.27 L 756.64 375.09 L 755.76 377.98 L 754.03 384.99 L 751.85 394.30 L 749.62 404.07 L 747.74 412.49 L 746.60 417.71 L 745.56 424.24 L 744.14 435.21 L 742.69 448.24 L 741.55 460.93 L 741.20 466.64 L 741.08 470.88 L 741.25 474.48 L 741.62 475.71 L 742.72 476.76 L 744.44 477.95 L 748.36 480.03 L 751.84 481.56 L 753.34 482.15 L 753.36 478.32 L 753.43 468.08 L 753.57 453.34 L 753.82 435.98 L 754.19 417.89 L 754.70 400.96 L 755.39 387.09 L 755.84 381.53 L 756.27 378.16 Z" fill="none" group-id="5,24,85,110" id="路径_569" node-id="172" stroke="#707070" stroke-linecap="butt" stroke-width="1" target-height="107.05713" target-width="15.607422" target-x="741.0781" target-y="375.09277"></path></g></g></svg>