<svg width="560" height="160" xmlns="http://www.w3.org/2000/svg" fill="none">
 <g>
  <title>Layer 1</title>
  <path stroke="null" id="svg_1" clip-rule="evenodd" d="m26.93541,53.85411c3.03679,-13.24277 13.75486,-22.63894 27.00358,-25.65787a161.18785,161.18785 0 0 1 35.56017,-4.06096c13.83226,0 26.0985,1.90543 35.56017,4.06096c13.24872,3.01893 23.97274,12.4151 27.00954,25.66383a121.76917,121.76917 0 0 1 2.92961,27.19413c0,12.34365 -1.64344,22.24595 -3.59651,29.65332c-2.94152,11.15274 -11.81965,19.23297 -23.01408,22.03159c-9.3009,2.31629 -22.37695,4.46586 -38.88873,4.46586c-16.51178,0 -29.59378,-2.14957 -38.89468,-4.46586c-11.19442,-2.79861 -20.07256,-10.87884 -23.01408,-22.03159c-1.94711,-7.40143 -3.59056,-17.30373 -3.59056,-29.64737c0,-10.90861 1.28616,-20.01301 2.93557,-27.20604l0,-0.00001zm30.26068,20.27501a6.91911,6.91911 0 1 1 13.84417,0l0,9.22945a6.91911,6.91911 0 1 1 -13.84417,0l0,-9.22945zm57.68107,-6.91911c-3.82278,0 -6.91911,3.09633 -6.91911,6.91911l0,9.22945a6.91911,6.91911 0 1 0 13.83821,0l0,-9.22945c0,-3.82278 -3.09633,-6.91911 -6.91911,-6.91911l0.00001,0l0.00001,0z" fill-rule="evenodd" fill="#00b669"/>
  <text fill="#252525" x="191.93755" y="88.08697" id="svg_4" stroke-width="0" font-size="66" font-family="'Alegreya'" text-anchor="start" xml:space="preserve" stroke="null" transform="matrix(1.31148 0 0 1.31148 -65.7217 -5.6651)" font-weight="bold" font-style="normal">小鸣助手</text>
 </g>

</svg>